<svg width="40" height="32" viewBox="0 0 40 32" fill="none" xmlns="http://www.w3.org/2000/svg">
<path d="M40 12V4C40 1.8 38.2 0 36 0H4C1.8 0 0.02 1.8 0.02 4V12C2.22 12 4 13.8 4 16C4 18.2 2.22 20 0 20V28C0 30.2 1.8 32 4 32H36C38.2 32 40 30.2 40 28V20C37.8 20 36 18.2 36 16C36 13.8 37.8 12 40 12ZM36 9.08C33.62 10.46 32 13.06 32 16C32 18.94 33.62 21.54 36 22.92V28H4V22.92C6.38 21.54 8 18.94 8 16C8 13.04 6.4 10.46 4.02 9.08L4 4H36V9.08ZM14.14 24L20 20.24L25.86 24L24.08 17.28L29.46 12.88L22.52 12.46L20 6L17.46 12.44L10.52 12.86L15.9 17.26L14.14 24Z" fill="white"/>
</svg>
