<svg width="97" height="46" viewBox="0 0 97 46" fill="none" xmlns="http://www.w3.org/2000/svg">
<path d="M48.7463 25.7409C48.4391 25.49 48.0223 25.7954 48.0552 26.1554C48.0223 28.675 48.1868 31.1837 48.483 33.6815C48.7024 31.1946 48.8779 28.7077 48.9218 26.2208C48.9218 26.0463 48.8999 25.8391 48.7463 25.7409Z" fill="url(#paint0_linear_662_3752)"/>
<path d="M57.5668 16.6333C57.2048 15.9788 56.1297 16.1097 55.9542 16.8405C55.5045 18.3021 55.1425 19.7855 54.7585 21.258C53.5189 26.1554 52.4 31.0746 51.3579 36.0157C53.2118 30.8129 55.0547 25.5882 56.7221 20.32C57.0402 19.3165 57.3693 18.313 57.6545 17.2986C57.7204 17.0696 57.6874 16.8296 57.5668 16.6223" fill="url(#paint1_linear_662_3752)"/>
<path d="M59.2117 28.8714C57.7856 30.9438 56.4912 33.1144 55.3503 35.3613C56.8203 33.398 58.4109 31.4456 59.8589 29.3623C60.1112 28.9696 59.5408 28.5333 59.2117 28.8714Z" fill="url(#paint2_linear_662_3752)"/>
<path d="M71.9152 24.4317C71.7287 23.7445 70.7963 23.5591 70.3575 24.1045C69.5457 25.0316 68.712 25.9587 67.8783 26.8749C64.0389 31.0961 60.2434 35.35 56.6892 39.8111C61.1649 35.5136 65.8489 31.4451 70.171 26.9949C70.7195 26.395 71.3009 25.8169 71.7945 25.1625C71.9371 24.9552 71.981 24.6826 71.9152 24.4317Z" fill="url(#paint3_linear_662_3752)"/>
<path d="M66.7153 36.7027C66.5507 36.67 66.3972 36.7682 66.2655 36.8554C64.4336 38.2189 62.6126 39.5932 60.8794 41.0766C62.7223 40.0077 64.5872 38.9715 66.3533 37.7608C66.7372 37.5535 67.4612 36.9427 66.7263 36.7027" fill="url(#paint4_linear_662_3752)"/>
<path d="M79.8462 38.1098C79.6049 37.9789 79.3307 38.0444 79.0784 38.0771C77.8168 38.3716 76.5992 38.8188 75.3487 39.1787C69.776 40.8912 64.2912 42.9636 59.0696 45.5486C65.7063 43.269 72.5843 41.851 79.3307 39.964C80.307 39.7895 80.9103 38.6443 79.8572 38.1098" fill="url(#paint5_linear_662_3752)"/>
<path d="M67.8341 2.88972C67.3733 2.79155 66.9784 3.1624 66.8358 3.57688C66.1557 4.99484 65.5085 6.42371 64.8613 7.85258C61.8665 14.5388 58.9705 21.2796 56.4365 28.1621C60.3417 20.0252 64.8284 12.1828 68.5581 3.96954C68.7007 3.48962 68.3387 2.92244 67.8341 2.88972Z" fill="url(#paint6_linear_662_3752)"/>
<path d="M76.4668 8.93241C75.315 10.4485 74.1961 11.9974 73.0991 13.5571C69.6217 18.52 66.0785 23.4501 62.9412 28.6421C67.7349 22.4249 74.3497 15.5859 78.0904 9.73955C78.2659 8.87787 77.0702 8.28887 76.4668 8.94331" fill="url(#paint7_linear_662_3752)"/>
<path d="M85.2985 18.7165C79.0787 23.3086 73.2099 28.3696 67.5276 33.5942C73.9449 28.9913 80.6035 24.6829 86.955 19.9818C87.8984 18.8038 86.3407 17.6803 85.2985 18.7056" fill="url(#paint8_linear_662_3752)"/>
<path d="M91.3207 28.1733C82.9837 31.7946 74.7674 35.743 66.9131 40.3132C75.0307 36.8447 83.5212 33.7034 91.8034 30.3548C93.2843 30.0167 92.8346 27.8025 91.3207 28.1733Z" fill="url(#paint9_linear_662_3752)"/>
<path d="M55.2077 0.206549C54.703 -0.229747 53.8145 0.0647502 53.6609 0.719194C53.4635 1.77721 53.3976 2.86795 53.266 3.93688C52.6298 10.0668 52.1032 16.2077 51.9058 22.3704C52.9698 16.4695 54.2752 10.6122 55.1418 4.67858C55.3174 3.51149 55.449 2.3553 55.6026 1.18821C55.6245 0.828268 55.5258 0.41379 55.2077 0.206549Z" fill="url(#paint10_linear_662_3752)"/>
<path d="M95.467 40.1602C87.8979 41.2945 80.3397 42.767 73.001 44.9594C80.3507 43.8141 87.9308 43.3342 95.3463 42.2435C96.7614 42.1889 96.9589 40.2365 95.467 40.1602Z" fill="url(#paint11_linear_662_3752)"/>
<path d="M73.5169 21.4106C73.2865 21.6833 72.9684 21.9014 72.8258 22.2504C72.7051 22.6431 73.089 23.1012 73.4949 23.014C73.824 22.9921 73.9995 22.654 74.2299 22.4468C76.6761 19.7854 78.9359 16.9385 81.1957 14.1135C78.5958 16.5022 75.9521 18.8473 73.5169 21.4215" fill="url(#paint12_linear_662_3752)"/>
<path d="M57.0726 13.83C56.9958 14.1136 56.8861 14.4299 57.0616 14.7026C57.281 15.0844 57.8405 15.1498 58.1476 14.8444C58.4657 14.4408 58.4438 13.8627 58.6084 13.3937C59.6176 9.56522 60.3855 5.68219 60.9668 1.77734C59.6724 5.80217 58.0708 9.72884 57.0726 13.8409" fill="url(#paint13_linear_662_3752)"/>
<path d="M84.0364 37.1936C83.3563 37.4335 82.2812 37.2808 81.9522 38.0225C81.8863 38.2625 81.9741 38.557 82.1825 38.6988C82.5555 38.9933 83.0601 38.7315 83.4769 38.6879C86.9763 37.7499 90.4427 36.67 93.8543 35.4702C90.5634 35.972 87.2725 36.4301 84.0364 37.1936Z" fill="url(#paint14_linear_662_3752)"/>
<path d="M69.1938 34.8051C68.2723 35.1541 69.0731 36.463 69.7971 35.7977C72.9783 33.8452 78.6277 30.2894 82.5988 27.6062C78.0683 29.8858 73.6804 32.4382 69.1938 34.8051Z" fill="url(#paint15_linear_662_3752)"/>
<path d="M60.7693 26.0679C60.7693 26.0679 60.7254 26.0897 60.6925 26.1115C59.9795 26.8641 61.2081 27.7912 61.7566 26.9077C62.7329 25.4898 67.033 16.9056 69.3367 12.739C66.5504 16.5784 62.3051 23.5046 60.7693 26.0569" fill="url(#paint16_linear_662_3752)"/>
<path d="M48.9993 5.94409C48.7361 11.605 48.0998 17.266 47.9133 22.916C48.3082 23.9086 49.5149 23.385 49.3504 22.4034C49.5698 16.9169 49.4162 11.4196 48.9993 5.94409Z" fill="url(#paint17_linear_662_3752)"/>
<path d="M39.4448 16.6333C39.8068 15.9788 40.8818 16.1097 41.0574 16.8405C41.5071 18.3021 41.8691 19.7855 42.2531 21.258C43.4926 26.1554 44.6116 31.0746 45.6537 36.0157C43.7998 30.8129 41.9569 25.5882 40.2895 20.32C39.9823 19.3165 39.6423 18.313 39.3571 17.2986C39.2912 17.0696 39.3241 16.8296 39.4448 16.6223" fill="url(#paint18_linear_662_3752)"/>
<path d="M37.7885 28.8714C39.2145 30.9438 40.5089 33.1144 41.6498 35.3613C40.1799 33.398 38.5783 31.4456 37.1412 29.3623C36.8999 28.9696 37.4594 28.5333 37.7885 28.8714Z" fill="url(#paint19_linear_662_3752)"/>
<path d="M25.0961 24.4317C25.2716 23.7445 26.215 23.5591 26.6538 24.1045C27.4655 25.0316 28.2883 25.9587 29.1329 26.8749C32.9614 31.0961 36.7679 35.35 40.3221 39.8111C35.8464 35.5136 31.1623 31.4451 26.8403 26.9949C26.2918 26.395 25.7104 25.8169 25.2058 25.1625C25.0632 24.9552 25.0193 24.6826 25.0851 24.4317" fill="url(#paint20_linear_662_3752)"/>
<path d="M30.2855 36.7027C30.45 36.67 30.6036 36.7682 30.7352 36.8554C32.5672 38.2189 34.3882 39.5932 36.1214 41.0766C34.2785 40.0077 32.4136 38.9715 30.6475 37.7608C30.2635 37.5535 29.5395 36.9427 30.2745 36.7027" fill="url(#paint21_linear_662_3752)"/>
<path d="M17.1547 38.1098C17.3851 37.9789 17.6703 38.0444 17.9226 38.0771C19.1841 38.3716 20.4127 38.8188 21.6523 39.1787C27.2249 40.8912 32.7098 42.9636 37.9424 45.5486C31.3057 43.269 24.4277 41.851 17.6813 39.964C16.705 39.7895 16.1016 38.6443 17.1547 38.1098Z" fill="url(#paint22_linear_662_3752)"/>
<path d="M29.165 2.88972C29.6257 2.79155 30.0206 3.1624 30.1632 3.57688C30.8434 4.99484 31.4906 6.42371 32.1378 7.85258C35.1325 14.5388 38.0285 21.2796 40.5625 28.1621C36.6573 20.0252 32.1707 12.1828 28.441 3.96954C28.2984 3.48962 28.6604 2.92244 29.165 2.88972Z" fill="url(#paint23_linear_662_3752)"/>
<path d="M20.5335 8.93241C21.6853 10.4485 22.8042 11.9974 23.9012 13.5571C27.3786 18.52 30.9218 23.4501 34.0592 28.6421C29.2654 22.4249 22.6397 15.5859 18.91 9.73955C18.7345 8.87787 19.9302 8.28887 20.5335 8.94331" fill="url(#paint24_linear_662_3752)"/>
<path d="M11.7025 18.7165C17.9223 23.3086 23.7911 28.3696 29.4734 33.5942C23.0452 28.9913 16.4085 24.6829 10.046 19.9818C9.09167 18.8038 10.6603 17.6803 11.7025 18.7056" fill="url(#paint25_linear_662_3752)"/>
<path d="M5.6788 28.1733C14.0158 31.7946 22.2321 35.743 30.0864 40.3132C21.9688 36.8447 13.4783 33.7034 5.19613 30.3548C3.71522 30.0167 4.17594 27.8025 5.6788 28.1733Z" fill="url(#paint26_linear_662_3752)"/>
<path d="M41.7926 0.206549C42.2972 -0.229747 43.1858 0.0647502 43.3393 0.719194C43.5368 1.77721 43.6026 2.86795 43.7452 3.93688C44.3815 10.0668 44.908 16.2077 45.1055 22.3704C44.0414 16.4695 42.736 10.6122 41.8584 4.67858C41.6829 3.51149 41.5513 2.3553 41.3977 1.18821C41.3648 0.828268 41.4745 0.41379 41.7926 0.206549Z" fill="url(#paint27_linear_662_3752)"/>
<path d="M1.53304 40.1602C9.10215 41.2945 16.6603 42.767 23.999 44.9594C16.6493 43.8141 9.06924 43.3342 1.6537 42.2435C0.238609 42.1889 0.0411543 40.2365 1.53304 40.1602Z" fill="url(#paint28_linear_662_3752)"/>
<path d="M23.4947 21.4106C23.7251 21.6833 24.0542 21.9014 24.1858 22.2504C24.3065 22.6431 23.9335 23.1012 23.5167 23.014C23.1876 22.9921 23.0121 22.654 22.7817 22.4468C20.3245 19.7854 18.0757 16.9385 15.8159 14.1135C18.4157 16.5022 21.0594 18.8473 23.4947 21.4215" fill="url(#paint29_linear_662_3752)"/>
<path d="M39.927 13.83C40.0038 14.1136 40.1135 14.4299 39.9379 14.7026C39.7185 15.0844 39.1591 15.1498 38.8519 14.8444C38.5338 14.4408 38.5557 13.8627 38.3912 13.3937C37.382 9.56522 36.6141 5.68219 36.0327 1.77734C37.3271 5.80217 38.9287 9.72884 39.927 13.8409" fill="url(#paint30_linear_662_3752)"/>
<path d="M12.9644 37.1936C13.6335 37.4335 14.7195 37.2808 15.0486 38.0225C15.1145 38.2625 15.0267 38.557 14.8183 38.6988C14.4453 38.9933 13.9407 38.7315 13.5238 38.6879C10.0245 37.7499 6.55807 36.67 3.14648 35.4702C6.4374 35.972 9.72832 36.4301 12.9644 37.1936Z" fill="url(#paint31_linear_662_3752)"/>
<path d="M27.8064 34.8051C28.7278 35.1541 27.927 36.463 27.203 35.7977C24.0218 33.8452 18.3724 30.2894 14.4014 27.6062C18.9319 29.8858 23.3198 32.4382 27.8064 34.8051Z" fill="url(#paint32_linear_662_3752)"/>
<path d="M36.2309 26.0679C36.2309 26.0679 36.2748 26.0897 36.3077 26.1115C37.0208 26.8641 35.7921 27.7912 35.2437 26.9077C34.2674 25.4898 29.9672 16.9056 27.6636 12.739C30.4499 16.5784 34.6952 23.5046 36.2309 26.0569" fill="url(#paint33_linear_662_3752)"/>
<defs>
<linearGradient id="paint0_linear_662_3752" x1="48.4864" y1="25.6492" x2="48.4864" y2="33.6815" gradientUnits="userSpaceOnUse">
<stop stop-color="#8354A3"/>
<stop offset="1" stop-color="#00C2D1"/>
</linearGradient>
<linearGradient id="paint1_linear_662_3752" x1="54.5229" y1="16.2097" x2="54.5229" y2="36.0157" gradientUnits="userSpaceOnUse">
<stop stop-color="#8354A3"/>
<stop offset="1" stop-color="#00C2D1"/>
</linearGradient>
<linearGradient id="paint2_linear_662_3752" x1="57.6359" y1="28.7502" x2="57.6359" y2="35.3613" gradientUnits="userSpaceOnUse">
<stop stop-color="#8354A3"/>
<stop offset="1" stop-color="#00C2D1"/>
</linearGradient>
<linearGradient id="paint3_linear_662_3752" x1="64.3172" y1="23.7861" x2="64.3172" y2="39.8111" gradientUnits="userSpaceOnUse">
<stop stop-color="#8354A3"/>
<stop offset="1" stop-color="#00C2D1"/>
</linearGradient>
<linearGradient id="paint4_linear_662_3752" x1="63.9611" y1="36.6963" x2="63.9611" y2="41.0766" gradientUnits="userSpaceOnUse">
<stop stop-color="#8354A3"/>
<stop offset="1" stop-color="#00C2D1"/>
</linearGradient>
<linearGradient id="paint5_linear_662_3752" x1="69.7402" y1="38.0315" x2="69.7402" y2="45.5486" gradientUnits="userSpaceOnUse">
<stop stop-color="#8354A3"/>
<stop offset="1" stop-color="#00C2D1"/>
</linearGradient>
<linearGradient id="paint6_linear_662_3752" x1="62.513" y1="2.87378" x2="62.513" y2="28.1621" gradientUnits="userSpaceOnUse">
<stop stop-color="#8354A3"/>
<stop offset="1" stop-color="#00C2D1"/>
</linearGradient>
<linearGradient id="paint7_linear_662_3752" x1="70.5245" y1="8.66382" x2="70.5245" y2="28.6421" gradientUnits="userSpaceOnUse">
<stop stop-color="#8354A3"/>
<stop offset="1" stop-color="#00C2D1"/>
</linearGradient>
<linearGradient id="paint8_linear_662_3752" x1="77.3871" y1="18.3037" x2="77.3871" y2="33.5942" gradientUnits="userSpaceOnUse">
<stop stop-color="#8354A3"/>
<stop offset="1" stop-color="#00C2D1"/>
</linearGradient>
<linearGradient id="paint9_linear_662_3752" x1="79.8125" y1="28.1316" x2="79.8125" y2="40.3132" gradientUnits="userSpaceOnUse">
<stop stop-color="#8354A3"/>
<stop offset="1" stop-color="#00C2D1"/>
</linearGradient>
<linearGradient id="paint10_linear_662_3752" x1="53.7556" y1="0" x2="53.7556" y2="22.3704" gradientUnits="userSpaceOnUse">
<stop stop-color="#8354A3"/>
<stop offset="1" stop-color="#00C2D1"/>
</linearGradient>
<linearGradient id="paint11_linear_662_3752" x1="84.7505" y1="40.1602" x2="84.7505" y2="44.9594" gradientUnits="userSpaceOnUse">
<stop stop-color="#8354A3"/>
<stop offset="1" stop-color="#00C2D1"/>
</linearGradient>
<linearGradient id="paint12_linear_662_3752" x1="76.9994" y1="14.1135" x2="76.9994" y2="23.0248" gradientUnits="userSpaceOnUse">
<stop stop-color="#8354A3"/>
<stop offset="1" stop-color="#00C2D1"/>
</linearGradient>
<linearGradient id="paint13_linear_662_3752" x1="58.9672" y1="1.77734" x2="58.9672" y2="15.037" gradientUnits="userSpaceOnUse">
<stop stop-color="#8354A3"/>
<stop offset="1" stop-color="#00C2D1"/>
</linearGradient>
<linearGradient id="paint14_linear_662_3752" x1="87.8925" y1="35.4702" x2="87.8925" y2="38.8368" gradientUnits="userSpaceOnUse">
<stop stop-color="#8354A3"/>
<stop offset="1" stop-color="#00C2D1"/>
</linearGradient>
<linearGradient id="paint15_linear_662_3752" x1="75.689" y1="27.6062" x2="75.689" y2="35.9835" gradientUnits="userSpaceOnUse">
<stop stop-color="#8354A3"/>
<stop offset="1" stop-color="#00C2D1"/>
</linearGradient>
<linearGradient id="paint16_linear_662_3752" x1="64.9063" y1="12.739" x2="64.9063" y2="27.268" gradientUnits="userSpaceOnUse">
<stop stop-color="#8354A3"/>
<stop offset="1" stop-color="#00C2D1"/>
</linearGradient>
<linearGradient id="paint17_linear_662_3752" x1="48.6817" y1="5.94409" x2="48.6817" y2="23.4488" gradientUnits="userSpaceOnUse">
<stop stop-color="#8354A3"/>
<stop offset="1" stop-color="#00C2D1"/>
</linearGradient>
<linearGradient id="paint18_linear_662_3752" x1="42.4887" y1="16.2097" x2="42.4887" y2="36.0157" gradientUnits="userSpaceOnUse">
<stop stop-color="#8354A3"/>
<stop offset="1" stop-color="#00C2D1"/>
</linearGradient>
<linearGradient id="paint19_linear_662_3752" x1="39.3662" y1="28.7502" x2="39.3662" y2="35.3613" gradientUnits="userSpaceOnUse">
<stop stop-color="#8354A3"/>
<stop offset="1" stop-color="#00C2D1"/>
</linearGradient>
<linearGradient id="paint20_linear_662_3752" x1="32.6886" y1="23.7861" x2="32.6886" y2="39.8111" gradientUnits="userSpaceOnUse">
<stop stop-color="#8354A3"/>
<stop offset="1" stop-color="#00C2D1"/>
</linearGradient>
<linearGradient id="paint21_linear_662_3752" x1="33.0397" y1="36.6963" x2="33.0397" y2="41.0766" gradientUnits="userSpaceOnUse">
<stop stop-color="#8354A3"/>
<stop offset="1" stop-color="#00C2D1"/>
</linearGradient>
<linearGradient id="paint22_linear_662_3752" x1="27.2717" y1="38.0315" x2="27.2717" y2="45.5486" gradientUnits="userSpaceOnUse">
<stop stop-color="#8354A3"/>
<stop offset="1" stop-color="#00C2D1"/>
</linearGradient>
<linearGradient id="paint23_linear_662_3752" x1="34.4861" y1="2.87378" x2="34.4861" y2="28.1621" gradientUnits="userSpaceOnUse">
<stop stop-color="#8354A3"/>
<stop offset="1" stop-color="#00C2D1"/>
</linearGradient>
<linearGradient id="paint24_linear_662_3752" x1="26.4759" y1="8.66382" x2="26.4759" y2="28.6421" gradientUnits="userSpaceOnUse">
<stop stop-color="#8354A3"/>
<stop offset="1" stop-color="#00C2D1"/>
</linearGradient>
<linearGradient id="paint25_linear_662_3752" x1="19.6117" y1="18.3037" x2="19.6117" y2="33.5942" gradientUnits="userSpaceOnUse">
<stop stop-color="#8354A3"/>
<stop offset="1" stop-color="#00C2D1"/>
</linearGradient>
<linearGradient id="paint26_linear_662_3752" x1="17.1887" y1="28.1316" x2="17.1887" y2="40.3132" gradientUnits="userSpaceOnUse">
<stop stop-color="#8354A3"/>
<stop offset="1" stop-color="#00C2D1"/>
</linearGradient>
<linearGradient id="paint27_linear_662_3752" x1="43.2488" y1="0" x2="43.2488" y2="22.3704" gradientUnits="userSpaceOnUse">
<stop stop-color="#8354A3"/>
<stop offset="1" stop-color="#00C2D1"/>
</linearGradient>
<linearGradient id="paint28_linear_662_3752" x1="12.2495" y1="40.1602" x2="12.2495" y2="44.9594" gradientUnits="userSpaceOnUse">
<stop stop-color="#8354A3"/>
<stop offset="1" stop-color="#00C2D1"/>
</linearGradient>
<linearGradient id="paint29_linear_662_3752" x1="20.0124" y1="14.1135" x2="20.0124" y2="23.0248" gradientUnits="userSpaceOnUse">
<stop stop-color="#8354A3"/>
<stop offset="1" stop-color="#00C2D1"/>
</linearGradient>
<linearGradient id="paint30_linear_662_3752" x1="38.0324" y1="1.77734" x2="38.0324" y2="15.037" gradientUnits="userSpaceOnUse">
<stop stop-color="#8354A3"/>
<stop offset="1" stop-color="#00C2D1"/>
</linearGradient>
<linearGradient id="paint31_linear_662_3752" x1="9.10831" y1="35.4702" x2="9.10831" y2="38.8368" gradientUnits="userSpaceOnUse">
<stop stop-color="#8354A3"/>
<stop offset="1" stop-color="#00C2D1"/>
</linearGradient>
<linearGradient id="paint32_linear_662_3752" x1="21.3111" y1="27.6062" x2="21.3111" y2="35.9835" gradientUnits="userSpaceOnUse">
<stop stop-color="#8354A3"/>
<stop offset="1" stop-color="#00C2D1"/>
</linearGradient>
<linearGradient id="paint33_linear_662_3752" x1="32.094" y1="12.739" x2="32.094" y2="27.268" gradientUnits="userSpaceOnUse">
<stop stop-color="#8354A3"/>
<stop offset="1" stop-color="#00C2D1"/>
</linearGradient>
</defs>
</svg>
