<svg width="96" height="60" viewBox="0 0 96 60" fill="none" xmlns="http://www.w3.org/2000/svg">
<path d="M30.8599 57.2536C30.8599 59.0836 37.7499 53.3755 39.1872 50.9918C41.845 46.4946 42.2756 41.9236 42.2756 37.3555V7.3691C42.2756 4.22728 46.2967 4.22728 46.2967 4.22728C47.5611 4.22728 49.0697 2.18182 48.3812 2.18182L24.8283 2.22819C23.8217 2.26364 25.3303 4.22728 26.8388 4.22728C26.8388 4.22728 30.8599 4.29819 30.8599 7.22455V46.6336" fill="#A0A0A0"/>
<path d="M9.84408 33.8264C9.84408 30.6846 5.82305 30.6846 5.82305 30.6846C4.55859 30.6846 3.05002 28.6391 3.73848 28.6391L27.2914 28.6855C28.298 28.7209 26.7895 30.6846 25.2809 30.6846C25.2809 30.6846 21.2599 30.7555 21.2599 33.6818" fill="#A0A0A0"/>
<path d="M9.91269 31.5655C9.89074 31.5655 9.8688 31.5655 9.84412 31.5627V37.3527C9.84412 41.9209 10.2747 46.4918 12.9326 50.9891C14.3698 53.3727 21.2626 59.0836 21.2599 57.2509V46.6337V31.11" fill="#A0A0A0"/>
<path d="M15.6316 23.4028C15.5548 23.34 15.4506 23.4164 15.4588 23.5064C15.4506 24.1364 15.4917 24.7637 15.5658 25.3882C15.6206 24.7664 15.6645 24.1446 15.6755 23.5228C15.6755 23.4791 15.67 23.4273 15.6316 23.4028Z" fill="#A0A0A0"/>
<path d="M17.8368 21.1255C17.7462 20.9618 17.4774 20.9946 17.4336 21.1773C17.3211 21.5427 17.2306 21.9136 17.1346 22.2818C16.8246 23.5064 16.5449 24.7364 16.2843 25.9718C16.7478 24.6709 17.2086 23.3646 17.6256 22.0473C17.7051 21.7964 17.7874 21.5455 17.8587 21.2918C17.8752 21.2346 17.8669 21.1746 17.8368 21.1227" fill="#A0A0A0"/>
<path d="M18.2482 24.1855C17.8916 24.7037 17.568 25.2464 17.2827 25.8082C17.6503 25.3173 18.048 24.8291 18.41 24.3082C18.4731 24.21 18.3305 24.1009 18.2482 24.1855Z" fill="#A0A0A0"/>
<path d="M21.4245 23.0755C21.3779 22.9037 21.1447 22.8573 21.035 22.9937C20.8321 23.2255 20.6236 23.4573 20.4151 23.6864C19.4551 24.7418 18.5061 25.8055 17.6174 26.9209C18.7365 25.8464 19.9077 24.8291 20.9884 23.7164C21.1255 23.5664 21.2709 23.4218 21.3943 23.2582C21.43 23.2064 21.441 23.1382 21.4245 23.0755Z" fill="#A0A0A0"/>
<path d="M20.1244 26.1436C20.0832 26.1355 20.0448 26.16 20.0119 26.1818C19.5538 26.5227 19.0985 26.8664 18.6652 27.2373C19.126 26.97 19.5922 26.7109 20.0338 26.4082C20.1298 26.3564 20.3109 26.2036 20.1271 26.1436" fill="#A0A0A0"/>
<path d="M23.4075 26.4955C23.3472 26.4627 23.2786 26.4791 23.2155 26.4873C22.9001 26.5609 22.5956 26.6727 22.2829 26.7627C20.8896 27.1909 19.5181 27.7091 18.2125 28.3555C19.872 27.7855 21.5917 27.4309 23.2786 26.9591C23.5227 26.9155 23.6736 26.6291 23.4102 26.4955" fill="#A0A0A0"/>
<path d="M20.4041 17.6891C20.2889 17.6646 20.1902 17.7573 20.1545 17.8609C19.9845 18.2155 19.8227 18.5727 19.6608 18.93C18.912 20.6018 18.1879 22.2873 17.5543 24.0082C18.5308 21.9736 19.6526 20.0127 20.5852 17.9591C20.6208 17.8391 20.5303 17.6973 20.4041 17.6891Z" fill="#A0A0A0"/>
<path d="M22.5627 19.2C22.2747 19.5791 21.995 19.9664 21.7207 20.3564C20.8512 21.5973 19.9652 22.83 19.1808 24.1282C20.3794 22.5737 22.0334 20.8637 22.9687 19.4018C23.0126 19.1864 22.7136 19.0391 22.5627 19.2028" fill="#A0A0A0"/>
<path d="M24.7708 21.6464C23.2156 22.7946 21.7482 24.06 20.3274 25.3664C21.932 24.2155 23.5969 23.1382 25.185 21.9627C25.4209 21.6682 25.0314 21.3873 24.7708 21.6436" fill="#A0A0A0"/>
<path d="M26.2767 24.0109C24.1921 24.9164 22.1377 25.9036 20.1738 27.0464C22.2035 26.1791 24.3265 25.3936 26.3974 24.5564C26.7677 24.4718 26.6552 23.9182 26.2767 24.0109Z" fill="#A0A0A0"/>
<path d="M17.2471 17.0182C17.1209 16.9091 16.8988 16.9827 16.8604 17.1464C16.811 17.4109 16.7945 17.6837 16.7616 17.9509C16.6025 19.4837 16.4709 21.0191 16.4215 22.56C16.6876 21.0846 17.014 19.62 17.2307 18.1364C17.2745 17.8446 17.3075 17.5555 17.3459 17.2637C17.3513 17.1737 17.3267 17.07 17.2471 17.0182Z" fill="#A0A0A0"/>
<path d="M27.3134 27.0082C25.4208 27.2918 23.531 27.66 21.696 28.2082C23.5338 27.9218 25.4291 27.8018 27.2832 27.5291C27.6371 27.5155 27.6864 27.0273 27.3134 27.0082Z" fill="#A0A0A0"/>
<path d="M21.8249 22.32C21.7673 22.3882 21.6878 22.4428 21.6521 22.53C21.622 22.6282 21.718 22.7428 21.8194 22.7209C21.9017 22.7155 21.9456 22.6309 22.0032 22.5791C22.6149 21.9137 23.1799 21.2018 23.7449 20.4955C23.0949 21.0928 22.4338 21.6791 21.8249 22.3228" fill="#A0A0A0"/>
<path d="M17.7134 20.4246C17.6942 20.4955 17.6668 20.5746 17.7107 20.6427C17.7655 20.7382 17.9054 20.7546 17.9822 20.6782C18.0617 20.5773 18.0563 20.4327 18.0974 20.3155C18.3497 19.3582 18.5417 18.3873 18.6871 17.4109C18.3635 18.4173 17.963 19.3991 17.7134 20.4273" fill="#A0A0A0"/>
<path d="M24.4552 26.2664C24.2852 26.3264 24.0164 26.2882 23.9341 26.4737C23.9176 26.5337 23.9396 26.6073 23.9917 26.6428C24.0849 26.7164 24.2111 26.6509 24.3153 26.64C25.1903 26.4055 26.0571 26.1355 26.9101 25.8355C26.0872 25.9609 25.2644 26.0755 24.4552 26.2664Z" fill="#A0A0A0"/>
<path d="M20.7443 25.6691C20.5139 25.7564 20.7141 26.0837 20.8951 25.9173C21.6905 25.4291 23.1031 24.54 24.096 23.8691C22.9632 24.4391 21.8661 25.0773 20.7443 25.6691Z" fill="#A0A0A0"/>
<path d="M18.6377 23.4846C18.6377 23.4846 18.6267 23.49 18.6185 23.4955C18.4402 23.6836 18.7474 23.9155 18.8846 23.6946C19.1287 23.34 20.2039 21.1936 20.7799 20.1518C20.0832 21.1118 19.0217 22.8436 18.6377 23.4818" fill="#A0A0A0"/>
<path d="M15.6946 18.4527C15.6288 19.8682 15.4697 21.2836 15.4231 22.6964C15.5218 22.9445 15.8236 22.8136 15.7824 22.5682C15.8373 21.1964 15.7989 19.8218 15.6946 18.4527Z" fill="#A0A0A0"/>
<path d="M13.3057 21.1255C13.3962 20.9618 13.665 20.9946 13.7089 21.1773C13.8213 21.5427 13.9118 21.9136 14.0078 22.2818C14.3178 23.5064 14.5976 24.7364 14.8581 25.9718C14.3946 24.6709 13.9338 23.3646 13.5169 22.0473C13.4401 21.7964 13.355 21.5455 13.2837 21.2918C13.2673 21.2346 13.2755 21.1746 13.3057 21.1227" fill="#A0A0A0"/>
<path d="M12.8915 24.1855C13.248 24.7037 13.5717 25.2464 13.857 25.8082C13.4894 25.3173 13.089 24.8291 12.7296 24.3082C12.6693 24.21 12.8092 24.1009 12.8915 24.1855Z" fill="#A0A0A0"/>
<path d="M9.71799 23.0755C9.76187 22.9037 9.99776 22.8573 10.1075 22.9937C10.3104 23.2255 10.5162 23.4573 10.7274 23.6864C11.6846 24.7418 12.6364 25.8055 13.5251 26.9209C12.406 25.8464 11.2348 24.8291 10.1541 23.7164C10.017 23.5664 9.87159 23.4218 9.74542 23.2582C9.70976 23.2064 9.69879 23.1382 9.71525 23.0755" fill="#A0A0A0"/>
<path d="M11.0154 26.1436C11.0565 26.1355 11.0949 26.16 11.1278 26.1818C11.5859 26.5227 12.0412 26.8664 12.4746 27.2373C12.0138 26.97 11.5475 26.7109 11.1059 26.4082C11.0099 26.3564 10.8288 26.2036 11.0126 26.1436" fill="#A0A0A0"/>
<path d="M7.73206 26.4955C7.78966 26.4627 7.86098 26.4791 7.92406 26.4873C8.23949 26.5609 8.54669 26.6727 8.85664 26.7627C10.25 27.1909 11.6214 27.7091 12.9298 28.3555C11.2703 27.7855 9.55058 27.4309 7.86372 26.9591C7.61961 26.9155 7.46875 26.6291 7.73206 26.4955Z" fill="#A0A0A0"/>
<path d="M10.7355 17.6891C10.8507 17.6646 10.9494 17.7573 10.9851 17.8609C11.1552 18.2155 11.317 18.5727 11.4788 18.93C12.2276 20.6018 12.9517 22.2873 13.5853 24.0082C12.6089 21.9736 11.487 20.0127 10.5545 17.9591C10.5188 17.8391 10.6093 17.6973 10.7355 17.6891Z" fill="#A0A0A0"/>
<path d="M8.57692 19.2C8.86492 19.5791 9.14469 19.9664 9.41898 20.3564C10.2885 21.5973 11.1744 22.83 11.9589 24.1282C10.7602 22.5737 9.10355 20.8637 8.17098 19.4018C8.12709 19.1864 8.42606 19.0391 8.57692 19.2028" fill="#A0A0A0"/>
<path d="M6.36893 21.6464C7.92413 22.7946 9.39156 24.06 10.8124 25.3664C9.20504 24.2155 7.54561 23.1382 5.95476 21.9627C5.71613 21.6682 6.10836 21.3873 6.36893 21.6436" fill="#A0A0A0"/>
<path d="M4.86311 24.0109C6.94768 24.9164 9.00208 25.9036 10.966 27.0464C8.93625 26.1791 6.81328 25.3936 4.74243 24.5564C4.37214 24.4718 4.48734 23.9182 4.86311 24.0109Z" fill="#A0A0A0"/>
<path d="M13.8926 17.0182C14.0188 16.9091 14.241 16.9827 14.2794 17.1464C14.3287 17.4109 14.3452 17.6837 14.3809 17.9509C14.5399 19.4837 14.6716 21.0191 14.721 22.56C14.4549 21.0846 14.1285 19.62 13.9091 18.1364C13.8652 17.8446 13.8323 17.5555 13.7939 17.2637C13.7857 17.1737 13.8131 17.07 13.8926 17.0182Z" fill="#A0A0A0"/>
<path d="M3.82629 27.0082C5.71886 27.2918 7.60869 27.66 9.44366 28.2082C7.60595 27.9218 5.71064 27.8018 3.85646 27.5291C3.50264 27.5155 3.45326 27.0273 3.82629 27.0082Z" fill="#A0A0A0"/>
<path d="M9.31746 22.32C9.37506 22.3882 9.45735 22.4428 9.49026 22.53C9.52043 22.6282 9.42718 22.7428 9.32295 22.7209C9.24066 22.7155 9.19678 22.6309 9.13918 22.5791C8.52478 21.9137 7.96249 21.2018 7.39746 20.4955C8.04752 21.0928 8.70855 21.6791 9.31746 22.3228" fill="#A0A0A0"/>
<path d="M13.4264 20.4246C13.4456 20.4955 13.473 20.5746 13.4291 20.6427C13.3742 20.7382 13.2344 20.7546 13.1576 20.6782C13.078 20.5773 13.0835 20.4327 13.0424 20.3155C12.79 19.3582 12.598 18.3873 12.4526 17.4109C12.7763 18.4173 13.1768 19.3991 13.4264 20.4273" fill="#A0A0A0"/>
<path d="M6.68435 26.2664C6.85166 26.3264 7.12321 26.2882 7.20549 26.4737C7.22195 26.5337 7.20001 26.6073 7.14789 26.6428C7.05464 26.7164 6.92846 26.6509 6.82424 26.64C5.94926 26.4055 5.08252 26.1355 4.22949 25.8355C5.05235 25.9609 5.87521 26.0755 6.68435 26.2664Z" fill="#A0A0A0"/>
<path d="M10.3955 25.6691C10.6259 25.7564 10.4256 26.0837 10.2446 25.9173C9.44919 25.4291 8.03662 24.54 7.0437 23.8691C8.1765 24.4391 9.27364 25.0773 10.3955 25.6691Z" fill="#A0A0A0"/>
<path d="M12.5019 23.4846C12.5019 23.4846 12.5129 23.49 12.5211 23.4955C12.6994 23.6836 12.3922 23.9155 12.2551 23.6946C12.0109 23.34 10.9357 21.1936 10.3597 20.1518C11.0564 21.1118 12.1179 22.8436 12.5019 23.4818" fill="#A0A0A0"/>
<path d="M47.221 24.7064H52.1307V23.28H47.221V20.4682H52.7039V19.0282H45.5259V29.0182H52.8767V27.5755H47.221V24.7064Z" fill="#A0A0A0"/>
<path d="M58.5902 27.2482L55.488 19.0282H53.6667L57.6713 29.0182H59.4213L63.4834 19.0282H61.717L58.5902 27.2482Z" fill="#A0A0A0"/>
<path d="M66.5418 24.7064H71.4487V23.28H66.5418V20.4682H72.0247V19.0282H64.8467V29.0182H72.1975V27.5755H66.5418V24.7064Z" fill="#A0A0A0"/>
<path d="M81.3118 26.3618L75.9276 19.0282H74.2627V29.0182H75.9578V21.7173L81.3118 29.0182H82.9768V19.0282H81.3118V26.3618Z" fill="#A0A0A0"/>
<path d="M84.4387 19.0282V20.4682H87.6122V29.0182H89.3045V20.4682H92.4917V19.0282H84.4387Z" fill="#A0A0A0"/>
</svg>
