<svg width="40" height="41" viewBox="0 0 40 41" fill="none" xmlns="http://www.w3.org/2000/svg">
<path d="M35 35.8H5V19.1333C5 17.1635 5.38799 15.2129 6.14181 13.393C6.89563 11.5732 8.00052 9.91958 9.3934 8.5267C10.7863 7.13382 12.4399 6.02893 14.2597 5.27511C16.0796 4.52129 18.0302 4.1333 20 4.1333C21.9698 4.1333 23.9204 4.52129 25.7403 5.27511C27.5601 6.02893 29.2137 7.13382 30.6066 8.5267C31.9995 9.91958 33.1044 11.5732 33.8582 13.393C34.612 15.2129 35 17.1635 35 19.1333V35.8Z" stroke="black" stroke-width="3.33333" stroke-linecap="round" stroke-linejoin="round"/>
<path d="M34.6167 15.8H20V22.4667M13.3333 29.1334V22.4667H35M5 29.1334H35" stroke="black" stroke-width="3.33333" stroke-linecap="round" stroke-linejoin="round"/>
</svg>
