<svg width="32" height="32" viewBox="0 0 32 32" fill="none" xmlns="http://www.w3.org/2000/svg">
<path d="M5.3335 13.4122V17.9775C5.3335 20.4482 5.3335 21.6842 5.62816 22.6922C6.33083 25.0922 8.20816 26.9802 10.6082 27.8202C11.4082 28.0548 12.2028 28.3042 13.7335 28.5295C14.6269 28.6571 15.5357 28.6273 16.4188 28.4415C16.8228 28.3588 17.1522 28.2882 17.4295 28.2282C18.0828 28.0868 18.7362 27.9175 19.3362 27.6228C20.0135 27.2922 20.5402 26.9482 21.3028 26.3788C21.7588 26.0388 22.1762 25.6242 23.0095 24.7948L27.3388 20.4882C27.5485 20.28 27.7148 20.0324 27.8284 19.7596C27.9419 19.4868 28.0003 19.1943 28.0003 18.8988C28.0003 18.6034 27.9419 18.3109 27.8284 18.0381C27.7148 17.7653 27.5485 17.5177 27.3388 17.3095C26.9142 16.8877 26.34 16.651 25.7415 16.651C25.143 16.651 24.5688 16.8877 24.1442 17.3095L21.1442 20.2948V13.4122" stroke="black" stroke-width="2" stroke-linecap="round" stroke-linejoin="round"/>
<path d="M17.1908 10.4694V7.93344C17.1908 6.84678 18.0762 5.96678 19.1682 5.96678C20.2588 5.96678 21.1442 6.84678 21.1442 7.93344V13.8321M13.2388 13.4068V5.26678C13.2388 4.18011 14.1242 3.30011 15.2148 3.30011C16.3068 3.30011 17.1908 4.18011 17.1908 5.26678V13.4121M9.2855 9.76011V13.4121V6.60678C9.29888 6.09142 9.51301 5.60167 9.88225 5.2419C10.2515 4.88213 10.7466 4.68079 11.2622 4.68079C11.7777 4.68079 12.2728 4.88213 12.6421 5.2419C13.0113 5.60167 13.2254 6.09142 13.2388 6.60678V13.4121M9.2855 11.8054V10.6001C9.2855 9.51344 8.4015 8.63344 7.3095 8.63344C6.21883 8.63344 5.3335 9.51344 5.3335 10.6001V14.2508" stroke="black" stroke-width="2" stroke-linecap="round" stroke-linejoin="round"/>
</svg>
