<svg width="16" height="18" viewBox="0 0 16 18" fill="none" xmlns="http://www.w3.org/2000/svg">
<path d="M15.4532 13.8525C15.7387 13.2123 15.9275 12.5172 15.9998 11.7885L11.2932 12.801V10.8546L15.4531 9.9605C15.7386 9.32032 15.9273 8.62528 15.9996 7.89655L11.293 8.90816V1.90855C10.5718 2.31811 9.93133 2.86329 9.41068 3.50636V9.31297L7.52836 9.71764V0.956543C6.80716 1.36596 6.16667 1.91128 5.64603 2.55435V10.1222L1.43431 11.0274C1.14879 11.6676 0.959921 12.3626 0.887474 13.0913L5.64603 12.0685V14.5196L0.546307 15.6157C0.260791 16.2559 0.07206 16.9509 -0.000244141 17.6796L5.33774 16.5323C5.77227 16.4409 6.14575 16.181 6.38857 15.8234L7.36752 14.3555V14.3552C7.46915 14.2033 7.52836 14.0202 7.52836 13.8229V11.6638L9.41068 11.2592V15.1518L15.4531 13.8522L15.4532 13.8525Z" fill="white"/>
</svg>
