<svg width="54" height="54" viewBox="0 0 54 54" fill="none" xmlns="http://www.w3.org/2000/svg">
<path d="M0.333176 27C0.333176 12.28 12.2798 0.333313 26.9998 0.333313C41.7198 0.333313 53.6665 12.28 53.6665 27C53.6665 41.72 41.7198 53.6666 26.9998 53.6666C12.2798 53.6666 0.333176 41.72 0.333176 27ZM48.3332 27C48.3332 15.2133 38.7865 5.66665 26.9998 5.66665C15.2132 5.66665 5.66651 15.2133 5.66651 27C5.66651 38.7866 15.2132 48.3333 26.9998 48.3333C38.7865 48.3333 48.3332 38.7866 48.3332 27ZM16.3332 27L26.9998 37.6666L30.7598 33.9066L26.5465 29.6666H37.6665V24.3333H26.5465L30.7865 20.0933L26.9998 16.3333L16.3332 27Z" fill="white"/>
</svg>
