<svg width="144" height="90" viewBox="0 0 144 90" fill="none" xmlns="http://www.w3.org/2000/svg">
<path d="M46.2899 85.8807C46.2899 88.6257 56.625 80.0634 58.7809 76.4879C62.7676 69.742 63.4136 62.8857 63.4136 56.0334V11.0539C63.4136 6.34113 69.4451 6.34113 69.4451 6.34113C71.3418 6.34113 73.6047 3.27295 72.572 3.27295L37.2426 3.34249C35.7327 3.39568 37.9955 6.34113 40.2584 6.34113C40.2584 6.34113 46.2899 6.44749 46.2899 10.837V69.9507" fill="white"/>
<path d="M14.7661 50.7394C14.7661 46.0267 8.73452 46.0267 8.73452 46.0267C6.83783 46.0267 4.57497 42.9585 5.60766 42.9585L40.937 43.028C42.447 43.0812 40.1841 46.0267 37.9213 46.0267C37.9213 46.0267 31.8897 46.133 31.8897 50.5226" fill="white"/>
<path d="M14.869 47.3482C14.8361 47.3482 14.8031 47.3482 14.7661 47.3441V56.0291C14.7661 62.8814 15.4121 69.7378 19.3988 76.4837C21.5547 80.0591 31.8939 88.6255 31.8898 85.8764V69.9505V46.665" fill="white"/>
<path d="M23.4473 35.1042C23.3321 35.0101 23.1757 35.1247 23.1881 35.2597C23.1757 36.2047 23.2375 37.1456 23.3485 38.0824C23.4308 37.1497 23.4967 36.217 23.5131 35.2842C23.5131 35.2188 23.5049 35.141 23.4473 35.1042Z" fill="white"/>
<path d="M26.7552 31.6881C26.6194 31.4427 26.2162 31.4918 26.1504 31.7659C25.9817 32.3141 25.8459 32.8704 25.7019 33.4227C25.237 35.2595 24.8174 37.1045 24.4265 38.9577C25.1218 37.0063 25.813 35.0468 26.4384 33.0709C26.5577 32.6945 26.6811 32.3181 26.7881 31.9377C26.8128 31.8518 26.8005 31.7618 26.7552 31.6841" fill="white"/>
<path d="M27.3723 36.2779C26.8374 37.0551 26.352 37.8692 25.9241 38.712C26.4754 37.9756 27.072 37.2433 27.615 36.462C27.7097 36.3147 27.4957 36.1511 27.3723 36.2779Z" fill="white"/>
<path d="M32.1367 34.6132C32.0667 34.3555 31.717 34.2859 31.5524 34.4905C31.248 34.8382 30.9353 35.1859 30.6226 35.5296C29.1826 37.1128 27.7591 38.7082 26.426 40.3814C28.1047 38.7696 29.8615 37.2437 31.4825 35.5746C31.6882 35.3496 31.9063 35.1328 32.0914 34.8873C32.1449 34.8096 32.1613 34.7073 32.1367 34.6132Z" fill="white"/>
<path d="M30.1866 39.2153C30.1249 39.203 30.0673 39.2399 30.0179 39.2726C29.3308 39.7839 28.6479 40.2994 27.9978 40.8558C28.689 40.4549 29.3884 40.0662 30.0508 39.6121C30.1948 39.5344 30.4664 39.3053 30.1907 39.2153" fill="white"/>
<path d="M35.1113 39.7432C35.0208 39.6941 34.9179 39.7187 34.8233 39.731C34.3502 39.8414 33.8935 40.0091 33.4244 40.1441C31.3344 40.7864 29.2772 41.5637 27.3188 42.5332C29.808 41.6782 32.3876 41.1464 34.9179 40.4387C35.2841 40.3732 35.5104 39.9437 35.1154 39.7432" fill="white"/>
<path d="M30.6063 26.5333C30.4335 26.4965 30.2854 26.6356 30.2319 26.791C29.9768 27.3229 29.7341 27.8588 29.4913 28.3947C28.3681 30.9024 27.2819 33.4306 26.3315 36.012C27.7962 32.9601 29.479 30.0188 30.8778 26.9383C30.9313 26.7583 30.7955 26.5456 30.6063 26.5333Z" fill="white"/>
<path d="M33.8442 28.8C33.4122 29.3686 32.9925 29.9495 32.5811 30.5345C31.2768 32.3959 29.9479 34.245 28.7712 36.1922C30.5692 33.8604 33.0501 31.2954 34.4531 29.1027C34.5189 28.7795 34.0704 28.5586 33.8442 28.804" fill="white"/>
<path d="M37.1561 32.4693C34.8233 34.1916 32.6222 36.0897 30.491 38.0493C32.8978 36.3229 35.3952 34.707 37.7774 32.9438C38.1312 32.502 37.547 32.0807 37.1561 32.4652" fill="white"/>
<path d="M39.415 36.0161C36.2882 37.3743 33.2066 38.8552 30.2607 40.5693C33.3053 39.2684 36.4898 38.0902 39.5961 36.8343C40.1515 36.7075 39.9828 35.877 39.415 36.0161Z" fill="white"/>
<path d="M25.8707 25.5272C25.6815 25.3635 25.3482 25.474 25.2906 25.7194C25.2166 26.1163 25.1919 26.5254 25.1425 26.9263C24.9039 29.2254 24.7064 31.5285 24.6323 33.8399C25.0314 31.6267 25.521 29.4299 25.846 27.2044C25.9119 26.7667 25.9612 26.3331 26.0188 25.8954C26.0271 25.7604 25.99 25.6049 25.8707 25.5272Z" fill="white"/>
<path d="M40.9702 40.5122C38.1314 40.9377 35.2966 41.4899 32.5442 42.3122C35.3008 41.8827 38.1437 41.7027 40.925 41.2936C41.4557 41.2731 41.5298 40.5408 40.9702 40.5122Z" fill="white"/>
<path d="M32.7374 33.48C32.651 33.5823 32.5317 33.6641 32.4782 33.795C32.4329 33.9423 32.5769 34.1141 32.7292 34.0813C32.8526 34.0732 32.9184 33.9463 33.0048 33.8686C33.9223 32.8704 34.7698 31.8027 35.6174 30.7432C34.6423 31.6391 33.6508 32.5186 32.7374 33.4841" fill="white"/>
<path d="M26.5702 30.6367C26.5414 30.743 26.5002 30.8617 26.5661 30.9639C26.6483 31.1071 26.8582 31.1317 26.9734 31.0171C27.0927 30.8658 27.0845 30.6489 27.1462 30.473C27.5247 29.0371 27.8127 27.5808 28.0307 26.1162C27.5453 27.6258 26.9446 29.0985 26.5702 30.6408" fill="white"/>
<path d="M36.6831 39.3993C36.428 39.4893 36.0248 39.432 35.9014 39.7102C35.8767 39.8002 35.9096 39.9107 35.9878 39.9638C36.1277 40.0743 36.3169 39.9761 36.4733 39.9597C37.7857 39.6079 39.0858 39.2029 40.3654 38.7529C39.1311 38.9411 37.8968 39.1129 36.6831 39.3993Z" fill="white"/>
<path d="M31.1164 38.5037C30.7708 38.6346 31.0711 39.1255 31.3427 38.876C32.5358 38.1437 34.6547 36.8101 36.1441 35.8037C34.4448 36.6587 32.7991 37.616 31.1164 38.5037Z" fill="white"/>
<path d="M27.9568 35.2266C27.9568 35.2266 27.9403 35.2348 27.928 35.243C27.6605 35.5253 28.1213 35.873 28.327 35.5416C28.6932 35.0098 30.306 31.7903 31.17 30.2275C30.125 31.6675 28.5328 34.2653 27.9568 35.2225" fill="white"/>
<path d="M23.5421 27.6792C23.4433 29.8024 23.2047 31.9256 23.1348 34.0447C23.2829 34.4169 23.7355 34.2206 23.6737 33.8524C23.756 31.7947 23.6984 29.7328 23.5421 27.6792Z" fill="white"/>
<path d="M19.9585 31.6881C20.0943 31.4427 20.4975 31.4918 20.5633 31.7659C20.732 32.3141 20.8678 32.8704 21.0118 33.4227C21.4767 35.2595 21.8963 37.1045 22.2872 38.9577C21.5919 37.0063 20.9007 35.0468 20.2753 33.0709C20.1601 32.6945 20.0326 32.3181 19.9256 31.9377C19.9009 31.8518 19.9132 31.7618 19.9585 31.6841" fill="white"/>
<path d="M19.3373 36.2779C19.8721 37.0551 20.3576 37.8692 20.7855 38.712C20.2342 37.9756 19.6335 37.2433 19.0945 36.462C19.004 36.3147 19.2138 36.1511 19.3373 36.2779Z" fill="white"/>
<path d="M14.5771 34.6132C14.6429 34.3555 14.9968 34.2859 15.1613 34.4905C15.4658 34.8382 15.7744 35.1859 16.0912 35.5296C17.527 37.1128 18.9547 38.7082 20.2877 40.3814C18.6091 38.7696 16.8523 37.2437 15.2313 35.5746C15.0256 35.3496 14.8075 35.1328 14.6182 34.8873C14.5648 34.8096 14.5483 34.7073 14.573 34.6132" fill="white"/>
<path d="M16.523 39.2153C16.5847 39.203 16.6423 39.2399 16.6917 39.2726C17.3787 39.7839 18.0617 40.2994 18.7118 40.8558C18.0206 40.4549 17.3211 40.0662 16.6587 39.6121C16.5147 39.5344 16.2432 39.3053 16.5189 39.2153" fill="white"/>
<path d="M11.5983 39.7432C11.6847 39.6941 11.7916 39.7187 11.8863 39.731C12.3594 39.8414 12.8202 40.0091 13.2851 40.1441C15.3752 40.7864 17.4323 41.5637 19.3948 42.5332C16.9057 41.6782 14.326 41.1464 11.7958 40.4387C11.4296 40.3732 11.2033 39.9437 11.5983 39.7432Z" fill="white"/>
<path d="M16.1034 26.5333C16.2762 26.4965 16.4243 26.6356 16.4778 26.791C16.7328 27.3229 16.9756 27.8588 17.2183 28.3947C18.3415 30.9024 19.4277 33.4306 20.3781 36.012C18.9134 32.9601 17.2307 30.0188 15.8318 26.9383C15.7783 26.7583 15.9141 26.5456 16.1034 26.5333Z" fill="white"/>
<path d="M12.8654 28.8C13.2974 29.3686 13.7171 29.9495 14.1285 30.5345C15.4328 32.3959 16.7617 34.245 17.9384 36.1922C16.1404 33.8604 13.6554 31.2954 12.2565 29.1027C12.1907 28.7795 12.6392 28.5586 12.8654 28.804" fill="white"/>
<path d="M9.55333 32.4693C11.8861 34.1916 14.0873 36.0897 16.2185 38.0493C13.8075 36.3229 11.3184 34.707 8.93208 32.9438C8.57413 32.502 9.16248 32.0807 9.55333 32.4652" fill="white"/>
<path d="M7.29467 36.0161C10.4215 37.3743 13.5031 38.8552 16.449 40.5693C13.4044 39.2684 10.2199 38.0902 7.11364 36.8343C6.55821 36.7075 6.73101 35.877 7.29467 36.0161Z" fill="white"/>
<path d="M20.8389 25.5272C21.0282 25.3635 21.3614 25.474 21.419 25.7194C21.4931 26.1163 21.5178 26.5254 21.5713 26.9263C21.8099 29.2254 22.0074 31.5285 22.0814 33.8399C21.6824 31.6267 21.1928 29.4299 20.8636 27.2044C20.7978 26.7667 20.7484 26.3331 20.6908 25.8954C20.6785 25.7604 20.7196 25.6049 20.8389 25.5272Z" fill="white"/>
<path d="M5.7395 40.5122C8.57836 40.9377 11.4131 41.4899 14.1656 42.3122C11.409 41.8827 8.56601 41.7027 5.78476 41.2936C5.25401 41.2731 5.17996 40.5408 5.7395 40.5122Z" fill="white"/>
<path d="M13.9762 33.48C14.0626 33.5823 14.186 33.6641 14.2354 33.795C14.2806 33.9423 14.1408 34.1141 13.9844 34.0813C13.861 34.0732 13.7952 33.9463 13.7088 33.8686C12.7872 32.8704 11.9437 31.8027 11.0962 30.7432C12.0713 31.6391 13.0628 32.5186 13.9762 33.4841" fill="white"/>
<path d="M20.1395 30.6367C20.1683 30.743 20.2095 30.8617 20.1436 30.9639C20.0614 31.1071 19.8515 31.1317 19.7363 31.0171C19.617 30.8658 19.6252 30.6489 19.5635 30.473C19.185 29.0371 18.897 27.5808 18.679 26.1162C19.1644 27.6258 19.7651 29.0985 20.1395 30.6408" fill="white"/>
<path d="M10.0265 39.3993C10.2775 39.4893 10.6848 39.432 10.8082 39.7102C10.8329 39.8002 10.8 39.9107 10.7218 39.9638C10.582 40.0743 10.3927 39.9761 10.2364 39.9597C8.9239 39.6079 7.62378 39.2029 6.34424 38.7529C7.57852 38.9411 8.81281 39.1129 10.0265 39.3993Z" fill="white"/>
<path d="M15.5933 38.5037C15.9389 38.6346 15.6386 39.1255 15.367 38.876C14.1739 38.1437 12.055 36.8101 10.5657 35.8037C12.2649 36.6587 13.9106 37.616 15.5933 38.5037Z" fill="white"/>
<path d="M18.7531 35.2266C18.7531 35.2266 18.7695 35.2348 18.7819 35.243C19.0493 35.5253 18.5885 35.873 18.3828 35.5416C18.0166 35.0098 16.4038 31.7903 15.5398 30.2275C16.5848 31.6675 18.1771 34.2653 18.7531 35.2225" fill="white"/>
<path d="M70.8315 37.0598H78.196V34.9202H70.8315V30.7025H79.0559V28.5425H68.2888V43.5275H79.3151V41.3634H70.8315V37.0598Z" fill="white"/>
<path d="M87.8851 40.8725L83.2319 28.5425H80.5L86.5069 43.5275H89.1318L95.225 28.5425H92.5754L87.8851 40.8725Z" fill="white"/>
<path d="M99.8124 37.0598H107.173V34.9202H99.8124V30.7025H108.037V28.5425H97.2698V43.5275H108.296V41.3634H99.8124V37.0598Z" fill="white"/>
<path d="M121.968 39.5429L113.892 28.5425H111.394V43.5275H113.937V32.5761L121.968 43.5275H124.465V28.5425H121.968V39.5429Z" fill="white"/>
<path d="M126.658 28.5425V30.7025H131.418V43.5275H133.957V30.7025H138.738V28.5425H126.658Z" fill="white"/>
</svg>
