<svg width="112" height="70" viewBox="0 0 112 70" fill="none" xmlns="http://www.w3.org/2000/svg">
<path d="M36.0032 66.7959C36.0032 68.9309 44.0416 62.2714 45.7184 59.4905C48.8192 54.2436 49.3216 48.9109 49.3216 43.5814V8.59727C49.3216 4.93182 54.0128 4.93182 54.0128 4.93182C55.488 4.93182 57.248 2.54546 56.4448 2.54546L28.9664 2.59955C27.792 2.64091 29.552 4.93182 31.312 4.93182C31.312 4.93182 36.0032 5.01455 36.0032 8.42864V54.4059" fill="#8354A3"/>
<path d="M11.4848 39.4641C11.4848 35.7986 6.79362 35.7986 6.79362 35.7986C5.31842 35.7986 3.55842 33.4123 4.36162 33.4123L31.84 33.4664C33.0144 33.5077 31.2544 35.7986 29.4944 35.7986C29.4944 35.7986 24.8032 35.8814 24.8032 39.2955" fill="#8354A3"/>
<path d="M11.5648 36.8264C11.5392 36.8264 11.5136 36.8264 11.4848 36.8232V43.5782C11.4848 48.9077 11.9872 54.2405 15.088 59.4873C16.7648 62.2682 24.8064 68.9309 24.8032 66.7927V54.4059V36.295" fill="#8354A3"/>
<path d="M18.2368 27.3032C18.1472 27.23 18.0256 27.3191 18.0352 27.4241C18.0256 28.1591 18.0736 28.8909 18.16 29.6195C18.224 28.8941 18.2752 28.1686 18.288 27.4432C18.288 27.3923 18.2816 27.3318 18.2368 27.3032Z" fill="#00C2D1"/>
<path d="M20.8096 24.6464C20.704 24.4555 20.3904 24.4936 20.3392 24.7068C20.208 25.1332 20.1024 25.5659 19.9904 25.9955C19.6288 27.4241 19.3024 28.8591 18.9984 30.3005C19.5392 28.7827 20.0768 27.2586 20.5632 25.7218C20.656 25.4291 20.752 25.1364 20.8352 24.8405C20.8544 24.7736 20.8448 24.7036 20.8096 24.6432" fill="#2AB2B5"/>
<path d="M21.2896 28.2164C20.8736 28.8209 20.496 29.4541 20.1632 30.1095C20.592 29.5368 21.056 28.9673 21.4784 28.3595C21.552 28.245 21.3856 28.1177 21.2896 28.2164Z" fill="#78CB99"/>
<path d="M24.9952 26.9214C24.9408 26.7209 24.6688 26.6668 24.5408 26.8259C24.304 27.0964 24.0608 27.3668 23.8176 27.6341C22.6976 28.8655 21.5904 30.1064 20.5536 31.4077C21.8592 30.1541 23.2256 28.9673 24.4864 27.6691C24.6464 27.4941 24.816 27.3255 24.96 27.1345C25.0016 27.0741 25.0144 26.9945 24.9952 26.9214Z" fill="#FFF88C"/>
<path d="M23.4784 30.5009C23.4304 30.4914 23.3856 30.52 23.3472 30.5455C22.8128 30.9432 22.2816 31.3441 21.776 31.7768C22.3136 31.465 22.8576 31.1627 23.3728 30.8095C23.4848 30.7491 23.696 30.5709 23.4816 30.5009" fill="#FFF88C"/>
<path d="M27.3088 30.9114C27.2384 30.8732 27.1584 30.8923 27.0848 30.9018C26.7168 30.9877 26.3616 31.1182 25.9968 31.2232C24.3712 31.7227 22.7712 32.3273 21.248 33.0814C23.184 32.4164 25.1904 32.0027 27.1584 31.4523C27.4432 31.4014 27.6192 31.0673 27.312 30.9114" fill="#FF9D5B"/>
<path d="M23.8048 20.6373C23.6704 20.6086 23.5552 20.7168 23.5136 20.8377C23.3152 21.2514 23.1264 21.6682 22.9376 22.085C22.064 24.0355 21.2192 26.0018 20.48 28.0095C21.6192 25.6359 22.928 23.3482 24.016 20.9523C24.0576 20.8123 23.952 20.6468 23.8048 20.6373Z" fill="#2AB2B5"/>
<path d="M26.3232 22.4C25.9872 22.8423 25.6608 23.2941 25.3408 23.7491C24.3264 25.1968 23.2928 26.635 22.3776 28.1495C23.776 26.3359 25.7056 24.3409 26.7968 22.6355C26.848 22.3841 26.4992 22.2123 26.3232 22.4032" fill="#78CB99"/>
<path d="M28.8992 25.2541C27.0848 26.5936 25.3728 28.07 23.7152 29.5941C25.5872 28.2514 27.5296 26.9945 29.3824 25.6232C29.6576 25.2795 29.2032 24.9518 28.8992 25.2509" fill="#FFF568"/>
<path d="M30.656 28.0127C28.224 29.0691 25.8272 30.2209 23.536 31.5541C25.904 30.5423 28.3808 29.6259 30.7968 28.6491C31.2288 28.5505 31.0976 27.9045 30.656 28.0127Z" fill="#FFB48A"/>
<path d="M20.1216 19.8545C19.9744 19.7273 19.7152 19.8132 19.6704 20.0041C19.6128 20.3127 19.5936 20.6309 19.5552 20.9427C19.3696 22.7309 19.216 24.5223 19.1584 26.32C19.4688 24.5986 19.8496 22.89 20.1024 21.1591C20.1536 20.8186 20.192 20.4814 20.2368 20.1409C20.2432 20.0359 20.2144 19.915 20.1216 19.8545Z" fill="#00C2D1"/>
<path d="M31.8656 31.5095C29.6576 31.8405 27.4528 32.27 25.312 32.9095C27.456 32.5755 29.6672 32.4355 31.8304 32.1173C32.2432 32.1014 32.3008 31.5318 31.8656 31.5095Z" fill="#E98B38"/>
<path d="M25.4624 26.04C25.3952 26.1195 25.3024 26.1832 25.2608 26.285C25.2256 26.3995 25.3376 26.5332 25.456 26.5077C25.552 26.5014 25.6032 26.4027 25.6704 26.3423C26.384 25.5659 27.0432 24.7355 27.7024 23.9114C26.944 24.6082 26.1728 25.2923 25.4624 26.0432" fill="#FFF88C"/>
<path d="M20.6656 23.8286C20.6432 23.9114 20.6112 24.0036 20.6624 24.0832C20.7264 24.1945 20.8896 24.2136 20.9792 24.1245C21.072 24.0068 21.0656 23.8382 21.1136 23.7014C21.408 22.5845 21.632 21.4518 21.8016 20.3127C21.424 21.4868 20.9568 22.6323 20.6656 23.8318" fill="#2AB2B5"/>
<path d="M28.5312 30.6441C28.3328 30.7141 28.0192 30.6695 27.9232 30.8859C27.904 30.9559 27.9296 31.0418 27.9904 31.0832C28.0992 31.1691 28.2464 31.0927 28.368 31.08C29.3888 30.8064 30.4 30.4914 31.3952 30.1414C30.4352 30.2877 29.4752 30.4214 28.5312 30.6441Z" fill="#FF9D5B"/>
<path d="M24.2016 29.9473C23.9328 30.0491 24.1664 30.4309 24.3776 30.2368C25.3056 29.6673 26.9536 28.63 28.112 27.8473C26.7904 28.5123 25.5104 29.2568 24.2016 29.9473Z" fill="#FFF88C"/>
<path d="M21.744 27.3986C21.744 27.3986 21.7312 27.405 21.7216 27.4114C21.5136 27.6309 21.872 27.9014 22.032 27.6436C22.3168 27.23 23.5712 24.7259 24.2432 23.5105C23.4304 24.6305 22.192 26.6509 21.744 27.3955" fill="#78CB99"/>
<path d="M18.3104 21.5282C18.2336 23.1795 18.048 24.8309 17.9936 26.4791C18.1088 26.7686 18.4608 26.6159 18.4128 26.3295C18.4768 24.7291 18.432 23.1255 18.3104 21.5282Z" fill="#00C2D1"/>
<path d="M15.5232 24.6464C15.6288 24.4555 15.9424 24.4936 15.9936 24.7068C16.1248 25.1332 16.2304 25.5659 16.3424 25.9955C16.704 27.4241 17.0304 28.8591 17.3344 30.3005C16.7936 28.7827 16.256 27.2586 15.7696 25.7218C15.68 25.4291 15.5808 25.1364 15.4976 24.8405C15.4784 24.7736 15.488 24.7036 15.5232 24.6432" fill="#4DC7F6"/>
<path d="M15.04 28.2164C15.456 28.8209 15.8336 29.4541 16.1664 30.1095C15.7376 29.5368 15.2704 28.9673 14.8512 28.3595C14.7808 28.245 14.944 28.1177 15.04 28.2164Z" fill="#9D8CE2"/>
<path d="M11.3376 26.9214C11.3888 26.7209 11.664 26.6668 11.792 26.8259C12.0288 27.0964 12.2688 27.3668 12.5152 27.6341C13.632 28.8655 14.7424 30.1064 15.7792 31.4077C14.4736 30.1541 13.1072 28.9673 11.8464 27.6691C11.6864 27.4941 11.5168 27.3255 11.3696 27.1345C11.328 27.0741 11.3152 26.9945 11.3344 26.9214" fill="#9269B2"/>
<path d="M12.8512 30.5009C12.8992 30.4914 12.944 30.52 12.9824 30.5455C13.5168 30.9432 14.048 31.3441 14.5536 31.7768C14.016 31.465 13.472 31.1627 12.9568 30.8095C12.8448 30.7491 12.6336 30.5709 12.848 30.5009" fill="#FC94B8"/>
<path d="M9.02082 30.9114C9.08802 30.8732 9.17122 30.8923 9.24482 30.9018C9.61282 30.9877 9.97122 31.1182 10.3328 31.2232C11.9584 31.7227 13.5584 32.3273 15.0848 33.0814C13.1488 32.4164 11.1424 32.0027 9.17442 31.4523C8.88962 31.4014 8.71362 31.0673 9.02082 30.9114Z" fill="#FF4B59"/>
<path d="M12.5248 20.6373C12.6592 20.6086 12.7744 20.7168 12.816 20.8377C13.0144 21.2514 13.2032 21.6682 13.392 22.085C14.2656 24.0355 15.1104 26.0018 15.8496 28.0095C14.7104 25.6359 13.4016 23.3482 12.3136 20.9523C12.272 20.8123 12.3776 20.6468 12.5248 20.6373Z" fill="#00B4E9"/>
<path d="M10.0064 22.4C10.3424 22.8423 10.6688 23.2941 10.9888 23.7491C12.0032 25.1968 13.0368 26.635 13.952 28.1495C12.5536 26.3359 10.6208 24.3409 9.53279 22.6355C9.48159 22.3841 9.83039 22.2123 10.0064 22.4032" fill="#846ADC"/>
<path d="M7.4304 25.2541C9.2448 26.5936 10.9568 28.07 12.6144 29.5941C10.7392 28.2514 8.8032 26.9945 6.9472 25.6232C6.6688 25.2795 7.1264 24.9518 7.4304 25.2509" fill="#8354A3"/>
<path d="M5.67363 28.0127C8.10563 29.0691 10.5024 30.2209 12.7936 31.5541C10.4256 30.5423 7.94883 29.6259 5.53283 28.6491C5.10083 28.5505 5.23523 27.9045 5.67363 28.0127Z" fill="#F871A0"/>
<path d="M16.208 19.8545C16.3552 19.7273 16.6144 19.8132 16.6592 20.0041C16.7168 20.3127 16.736 20.6309 16.7776 20.9427C16.9632 22.7309 17.1168 24.5223 17.1744 26.32C16.864 24.5986 16.4832 22.89 16.2272 21.1591C16.176 20.8186 16.1376 20.4814 16.0928 20.1409C16.0832 20.0359 16.1152 19.915 16.208 19.8545Z" fill="#7EDBE5"/>
<path d="M4.46401 31.5095C6.67201 31.8405 8.87681 32.27 11.0176 32.9095C8.87361 32.5755 6.66241 32.4355 4.49921 32.1173C4.08641 32.1014 4.02881 31.5318 4.46401 31.5095Z" fill="#EA4846"/>
<path d="M10.8704 26.04C10.9376 26.1195 11.0336 26.1832 11.072 26.285C11.1072 26.3995 10.9984 26.5332 10.8768 26.5077C10.7808 26.5014 10.7296 26.4027 10.6624 26.3423C9.94563 25.5659 9.28963 24.7355 8.63043 23.9114C9.38883 24.6082 10.16 25.2923 10.8704 26.0432" fill="#9269B2"/>
<path d="M15.664 23.8286C15.6864 23.9114 15.7184 24.0036 15.6672 24.0832C15.6032 24.1945 15.44 24.2136 15.3504 24.1245C15.2576 24.0068 15.264 23.8382 15.216 23.7014C14.9216 22.5845 14.6976 21.4518 14.528 20.3127C14.9056 21.4868 15.3728 22.6323 15.664 23.8318" fill="#4DC7F6"/>
<path d="M7.79839 30.6441C7.99359 30.7141 8.31039 30.6695 8.40639 30.8859C8.42559 30.9559 8.39999 31.0418 8.33919 31.0832C8.23039 31.1691 8.08319 31.0927 7.96159 31.08C6.94079 30.8064 5.92959 30.4914 4.93439 30.1414C5.89439 30.2877 6.85439 30.4214 7.79839 30.6441Z" fill="#FF4B59"/>
<path d="M12.128 29.9473C12.3968 30.0491 12.1632 30.4309 11.952 30.2368C11.024 29.6673 9.37599 28.63 8.21759 27.8473C9.53919 28.5123 10.8192 29.2568 12.128 29.9473Z" fill="#FC94B8"/>
<path d="M14.5856 27.3986C14.5856 27.3986 14.5984 27.405 14.608 27.4114C14.816 27.6309 14.4576 27.9014 14.2976 27.6436C14.0128 27.23 12.7584 24.7259 12.0864 23.5105C12.8992 24.6305 14.1376 26.6509 14.5856 27.3955" fill="#9D8CE2"/>
<path d="M55.0912 28.8241H60.8192V27.16H55.0912V23.8795H61.488V22.1995H53.1136V33.8545H61.6896V32.1714H55.0912V28.8241Z" fill="#797C7C"/>
<path d="M68.3552 31.7895L64.736 22.1995H62.6112L67.2832 33.8545H69.3248L74.064 22.1995H72.0032L68.3552 31.7895Z" fill="#797C7C"/>
<path d="M77.632 28.8241H83.3568V27.16H77.632V23.8795H84.0288V22.1995H75.6544V33.8545H84.2304V32.1714H77.632V28.8241Z" fill="#797C7C"/>
<path d="M94.864 30.7555L88.5824 22.1995H86.64V33.8545H88.6176V25.3368L94.864 33.8545H96.8064V22.1995H94.864V30.7555Z" fill="#797C7C"/>
<path d="M98.512 22.1995V23.8795H102.214V33.8545H104.189V23.8795H107.907V22.1995H98.512Z" fill="#797C7C"/>
</svg>
