<svg width="112" height="70" viewBox="0 0 112 70" fill="none" xmlns="http://www.w3.org/2000/svg">
<path d="M36.0032 66.7959C36.0032 68.9309 44.0416 62.2714 45.7184 59.4905C48.8192 54.2436 49.3216 48.9109 49.3216 43.5814V8.59727C49.3216 4.93182 54.0128 4.93182 54.0128 4.93182C55.488 4.93182 57.248 2.54546 56.4448 2.54546L28.9664 2.59955C27.792 2.64091 29.552 4.93182 31.312 4.93182C31.312 4.93182 36.0032 5.01455 36.0032 8.42864V54.4059" fill="white"/>
<path d="M11.4848 39.4641C11.4848 35.7986 6.79362 35.7986 6.79362 35.7986C5.31842 35.7986 3.55842 33.4123 4.36162 33.4123L31.84 33.4664C33.0144 33.5077 31.2544 35.7986 29.4944 35.7986C29.4944 35.7986 24.8032 35.8814 24.8032 39.2955" fill="white"/>
<path d="M11.5649 36.8264C11.5393 36.8264 11.5137 36.8264 11.4849 36.8232V43.5782C11.4849 48.9077 11.9873 54.2405 15.0881 59.4873C16.7649 62.2682 24.8065 68.9309 24.8033 66.7927V54.4059V36.295" fill="white"/>
<path d="M18.2367 27.3032C18.1471 27.23 18.0255 27.3191 18.0351 27.4241C18.0255 28.1591 18.0735 28.8909 18.1599 29.6195C18.2239 28.8941 18.2751 28.1686 18.2879 27.4432C18.2879 27.3923 18.2815 27.3318 18.2367 27.3032Z" fill="white"/>
<path d="M20.8095 24.6464C20.7039 24.4555 20.3903 24.4936 20.3391 24.7068C20.2079 25.1332 20.1023 25.5659 19.9903 25.9955C19.6287 27.4241 19.3023 28.8591 18.9983 30.3005C19.5391 28.7827 20.0767 27.2586 20.5631 25.7218C20.6559 25.4291 20.7519 25.1364 20.8351 24.8405C20.8543 24.7736 20.8447 24.7036 20.8095 24.6432" fill="white"/>
<path d="M21.2895 28.2164C20.8735 28.8209 20.4959 29.4541 20.1631 30.1095C20.5919 29.5368 21.0559 28.9673 21.4783 28.3595C21.5519 28.245 21.3855 28.1177 21.2895 28.2164Z" fill="white"/>
<path d="M24.9951 26.9214C24.9407 26.7209 24.6687 26.6668 24.5407 26.8259C24.3039 27.0964 24.0607 27.3668 23.8175 27.6341C22.6975 28.8655 21.5903 30.1064 20.5535 31.4077C21.8591 30.1541 23.2255 28.9673 24.4863 27.6691C24.6463 27.4941 24.8159 27.3255 24.9599 27.1345C25.0015 27.0741 25.0143 26.9945 24.9951 26.9214Z" fill="white"/>
<path d="M23.4783 30.5009C23.4303 30.4914 23.3855 30.52 23.3471 30.5455C22.8127 30.9432 22.2815 31.3441 21.7759 31.7768C22.3135 31.465 22.8575 31.1627 23.3727 30.8095C23.4847 30.7491 23.6959 30.5709 23.4815 30.5009" fill="white"/>
<path d="M27.3088 30.9114C27.2384 30.8732 27.1584 30.8923 27.0848 30.9018C26.7168 30.9877 26.3616 31.1182 25.9968 31.2232C24.3712 31.7227 22.7712 32.3273 21.248 33.0814C23.184 32.4164 25.1904 32.0027 27.1584 31.4523C27.4432 31.4014 27.6192 31.0673 27.312 30.9114" fill="white"/>
<path d="M23.8048 20.6373C23.6704 20.6086 23.5552 20.7168 23.5136 20.8377C23.3152 21.2514 23.1264 21.6682 22.9376 22.085C22.064 24.0355 21.2192 26.0018 20.48 28.0095C21.6192 25.6359 22.928 23.3482 24.016 20.9523C24.0576 20.8123 23.952 20.6468 23.8048 20.6373Z" fill="white"/>
<path d="M26.323 22.4C25.987 22.8423 25.6606 23.2941 25.3406 23.7491C24.3262 25.1968 23.2926 26.635 22.3774 28.1495C23.7758 26.3359 25.7054 24.3409 26.7966 22.6355C26.8478 22.3841 26.499 22.2123 26.323 22.4032" fill="white"/>
<path d="M28.8991 25.2541C27.0847 26.5936 25.3727 28.07 23.7151 29.5941C25.5871 28.2514 27.5295 26.9945 29.3823 25.6232C29.6575 25.2795 29.2031 24.9518 28.8991 25.2509" fill="white"/>
<path d="M30.6559 28.0127C28.2239 29.0691 25.8271 30.2209 23.5359 31.5541C25.9039 30.5423 28.3807 29.6259 30.7967 28.6491C31.2287 28.5505 31.0975 27.9045 30.6559 28.0127Z" fill="white"/>
<path d="M20.1216 19.8545C19.9744 19.7273 19.7152 19.8132 19.6704 20.0041C19.6128 20.3127 19.5936 20.6309 19.5552 20.9427C19.3696 22.7309 19.216 24.5223 19.1584 26.32C19.4688 24.5986 19.8496 22.89 20.1024 21.1591C20.1536 20.8186 20.192 20.4814 20.2368 20.1409C20.2432 20.0359 20.2144 19.915 20.1216 19.8545Z" fill="white"/>
<path d="M31.8656 31.5096C29.6576 31.8405 27.4528 32.27 25.312 32.9096C27.456 32.5755 29.6672 32.4355 31.8304 32.1173C32.2432 32.1014 32.3008 31.5318 31.8656 31.5096Z" fill="white"/>
<path d="M25.4623 26.04C25.3951 26.1195 25.3023 26.1832 25.2607 26.285C25.2255 26.3995 25.3375 26.5332 25.4559 26.5077C25.5519 26.5014 25.6031 26.4027 25.6703 26.3423C26.3839 25.5659 27.0431 24.7355 27.7023 23.9114C26.9439 24.6082 26.1727 25.2923 25.4623 26.0432" fill="white"/>
<path d="M20.6657 23.8286C20.6433 23.9114 20.6113 24.0036 20.6625 24.0832C20.7265 24.1945 20.8897 24.2136 20.9793 24.1245C21.0721 24.0068 21.0657 23.8382 21.1137 23.7014C21.4081 22.5845 21.6321 21.4518 21.8017 20.3127C21.4241 21.4868 20.9569 22.6323 20.6657 23.8318" fill="white"/>
<path d="M28.5313 30.6441C28.3329 30.7141 28.0193 30.6695 27.9233 30.8859C27.9041 30.9559 27.9297 31.0418 27.9905 31.0832C28.0993 31.1691 28.2465 31.0927 28.3681 31.08C29.3889 30.8064 30.4001 30.4914 31.3953 30.1414C30.4353 30.2877 29.4753 30.4214 28.5313 30.6441Z" fill="white"/>
<path d="M24.2015 29.9473C23.9327 30.0491 24.1663 30.4309 24.3775 30.2368C25.3055 29.6673 26.9535 28.63 28.1119 27.8473C26.7903 28.5123 25.5103 29.2568 24.2015 29.9473Z" fill="white"/>
<path d="M21.7441 27.3986C21.7441 27.3986 21.7313 27.405 21.7217 27.4114C21.5137 27.6309 21.8721 27.9014 22.0321 27.6436C22.3169 27.23 23.5713 24.7259 24.2433 23.5105C23.4305 24.6305 22.1921 26.6509 21.7441 27.3955" fill="white"/>
<path d="M18.3105 21.5282C18.2337 23.1795 18.0481 24.8309 17.9937 26.4791C18.1089 26.7686 18.4609 26.6159 18.4129 26.3295C18.4769 24.7291 18.4321 23.1255 18.3105 21.5282Z" fill="white"/>
<path d="M15.5231 24.6464C15.6287 24.4555 15.9423 24.4936 15.9935 24.7068C16.1247 25.1332 16.2303 25.5659 16.3423 25.9955C16.7039 27.4241 17.0303 28.8591 17.3343 30.3005C16.7935 28.7827 16.2559 27.2586 15.7695 25.7218C15.6799 25.4291 15.5807 25.1364 15.4975 24.8405C15.4783 24.7736 15.4879 24.7036 15.5231 24.6432" fill="white"/>
<path d="M15.0399 28.2164C15.4559 28.8209 15.8335 29.4541 16.1663 30.1095C15.7375 29.5368 15.2703 28.9673 14.8511 28.3595C14.7807 28.245 14.9439 28.1177 15.0399 28.2164Z" fill="white"/>
<path d="M11.3376 26.9214C11.3888 26.7209 11.664 26.6668 11.792 26.8259C12.0288 27.0964 12.2688 27.3668 12.5152 27.6341C13.632 28.8655 14.7424 30.1064 15.7792 31.4077C14.4736 30.1541 13.1072 28.9673 11.8464 27.6691C11.6864 27.4941 11.5168 27.3255 11.3696 27.1345C11.328 27.0741 11.3152 26.9945 11.3344 26.9214" fill="white"/>
<path d="M12.8511 30.5009C12.8991 30.4914 12.9439 30.52 12.9823 30.5455C13.5167 30.9432 14.0479 31.3441 14.5535 31.7768C14.0159 31.465 13.4719 31.1627 12.9567 30.8095C12.8447 30.7491 12.6335 30.5709 12.8479 30.5009" fill="white"/>
<path d="M9.02064 30.9114C9.08784 30.8732 9.17104 30.8923 9.24464 30.9018C9.61264 30.9877 9.97104 31.1182 10.3326 31.2232C11.9582 31.7227 13.5582 32.3273 15.0846 33.0814C13.1486 32.4164 11.1422 32.0027 9.17424 31.4523C8.88944 31.4014 8.71344 31.0673 9.02064 30.9114Z" fill="white"/>
<path d="M12.5248 20.6373C12.6592 20.6086 12.7744 20.7168 12.816 20.8377C13.0144 21.2514 13.2032 21.6682 13.392 22.085C14.2656 24.0355 15.1104 26.0018 15.8496 28.0095C14.7104 25.6359 13.4016 23.3482 12.3136 20.9523C12.272 20.8123 12.3776 20.6468 12.5248 20.6373Z" fill="white"/>
<path d="M10.0063 22.4C10.3423 22.8423 10.6687 23.2941 10.9887 23.7491C12.0031 25.1968 13.0367 26.635 13.9519 28.1495C12.5535 26.3359 10.6207 24.3409 9.53266 22.6355C9.48146 22.3841 9.83026 22.2123 10.0063 22.4032" fill="white"/>
<path d="M7.4304 25.2541C9.2448 26.5936 10.9568 28.07 12.6144 29.5941C10.7392 28.2514 8.8032 26.9945 6.9472 25.6232C6.6688 25.2795 7.1264 24.9518 7.4304 25.2509" fill="white"/>
<path d="M5.67363 28.0127C8.10563 29.0691 10.5024 30.2209 12.7936 31.5541C10.4256 30.5423 7.94883 29.6259 5.53283 28.6491C5.10083 28.5505 5.23523 27.9045 5.67363 28.0127Z" fill="white"/>
<path d="M16.2079 19.8545C16.3551 19.7273 16.6143 19.8132 16.6591 20.0041C16.7167 20.3127 16.7359 20.6309 16.7775 20.9427C16.9631 22.7309 17.1167 24.5223 17.1743 26.32C16.8639 24.5986 16.4831 22.89 16.2271 21.1591C16.1759 20.8186 16.1375 20.4814 16.0927 20.1409C16.0831 20.0359 16.1151 19.915 16.2079 19.8545Z" fill="white"/>
<path d="M4.46395 31.5096C6.67195 31.8405 8.87675 32.27 11.0175 32.9096C8.87355 32.5755 6.66235 32.4355 4.49915 32.1173C4.08635 32.1014 4.02875 31.5318 4.46395 31.5096Z" fill="white"/>
<path d="M10.8704 26.04C10.9376 26.1195 11.0336 26.1832 11.072 26.285C11.1072 26.3995 10.9984 26.5332 10.8768 26.5077C10.7808 26.5014 10.7296 26.4027 10.6624 26.3423C9.94557 25.5659 9.28957 24.7355 8.63037 23.9114C9.38877 24.6082 10.16 25.2923 10.8704 26.0432" fill="white"/>
<path d="M15.6638 23.8286C15.6862 23.9114 15.7182 24.0036 15.667 24.0832C15.603 24.1945 15.4398 24.2136 15.3502 24.1245C15.2574 24.0068 15.2638 23.8382 15.2158 23.7014C14.9214 22.5845 14.6974 21.4518 14.5278 20.3127C14.9054 21.4868 15.3726 22.6323 15.6638 23.8318" fill="white"/>
<path d="M7.79833 30.6441C7.99353 30.7141 8.31033 30.6695 8.40633 30.8859C8.42553 30.9559 8.39993 31.0418 8.33913 31.0832C8.23033 31.1691 8.08313 31.0927 7.96153 31.08C6.94073 30.8064 5.92953 30.4914 4.93433 30.1414C5.89433 30.2877 6.85433 30.4214 7.79833 30.6441Z" fill="white"/>
<path d="M12.1279 29.9473C12.3967 30.0491 12.1631 30.4309 11.9519 30.2368C11.0239 29.6673 9.37593 28.63 8.21753 27.8473C9.53913 28.5123 10.8191 29.2568 12.1279 29.9473Z" fill="white"/>
<path d="M14.5856 27.3986C14.5856 27.3986 14.5984 27.405 14.608 27.4114C14.816 27.6309 14.4576 27.9014 14.2976 27.6436C14.0128 27.23 12.7584 24.7259 12.0864 23.5105C12.8992 24.6305 14.1376 26.6509 14.5856 27.3955" fill="white"/>
<path d="M55.0911 28.8241H60.8191V27.16H55.0911V23.8795H61.4879V22.1995H53.1135V33.8545H61.6895V32.1714H55.0911V28.8241Z" fill="white"/>
<path d="M68.3551 31.7895L64.7359 22.1995H62.6111L67.2831 33.8545H69.3247L74.0639 22.1995H72.0031L68.3551 31.7895Z" fill="white"/>
<path d="M77.6319 28.8241H83.3567V27.16H77.6319V23.8795H84.0287V22.1995H75.6543V33.8545H84.2303V32.1714H77.6319V28.8241Z" fill="white"/>
<path d="M94.8639 30.7555L88.5823 22.1995H86.6399V33.8545H88.6175V25.3368L94.8639 33.8545H96.8063V22.1995H94.8639V30.7555Z" fill="white"/>
<path d="M98.512 22.1995V23.8795H102.214V33.8545H104.189V23.8795H107.907V22.1995H98.512Z" fill="white"/>
</svg>
