<svg width="25" height="24" viewBox="0 0 25 24" fill="none" xmlns="http://www.w3.org/2000/svg">
<path d="M0.617188 2.70422V21.0704L14.589 24V0L0.617188 2.70422ZM7.65627 16.1587C3.21467 15.8722 3.67212 7.86619 7.75995 7.80258C12.1392 8.09203 11.7095 16.0948 7.65627 16.1587ZM7.7203 9.37012C5.38034 9.53259 5.48511 14.5455 7.6842 14.5857C10.0141 14.4355 9.87725 9.40908 7.7203 9.37012ZM16.9697 12.5629C17.1806 12.718 17.4348 12.5629 17.4348 12.5629C17.1815 12.718 24.3549 7.95314 24.3549 7.95314V16.5814C24.3549 17.5207 23.7537 17.9146 23.0776 17.9146H15.4715L15.472 11.5344L16.9697 12.5629ZM15.4723 5.08847V9.783L17.1129 10.816C17.1562 10.8286 17.2499 10.8295 17.2932 10.816L24.3539 6.05564C24.3539 5.4923 23.8284 5.08847 23.5318 5.08847H15.4723Z" fill="#0078D4"/>
</svg>
