<svg width="54" height="54" viewBox="0 0 54 54" fill="none" xmlns="http://www.w3.org/2000/svg">
<path d="M53.6666 27C53.6666 12.28 41.7199 0.333313 26.9999 0.333313C12.2799 0.333313 0.333252 12.28 0.333252 27C0.333252 41.72 12.2799 53.6666 26.9999 53.6666C41.7199 53.6666 53.6666 41.72 53.6666 27ZM5.66658 27C5.66658 15.2133 15.2133 5.66665 26.9999 5.66665C38.7866 5.66665 48.3332 15.2133 48.3332 27C48.3332 38.7866 38.7866 48.3333 26.9999 48.3333C15.2133 48.3333 5.66658 38.7866 5.66658 27ZM37.6666 27L26.9999 37.6666L23.2399 33.9066L27.4533 29.6666H16.3333V24.3333H27.4533L23.2133 20.0933L26.9999 16.3333L37.6666 27Z" fill="white"/>
</svg>
