<svg width="16" height="19" viewBox="0 0 16 19" fill="none" xmlns="http://www.w3.org/2000/svg">
<g clip-path="url(#clip0_1114_6894)">
<path d="M9.95768 16.5281C9.67217 17.1684 9.48344 17.8633 9.41113 18.592L15.4532 17.293C15.7387 16.6528 15.9273 15.9577 15.9998 15.229L9.95768 16.5281Z" fill="black"/>
<path d="M15.453 13.401C15.7385 12.7608 15.9272 12.0658 15.9995 11.3371L11.2929 12.3496V10.4032L15.4528 9.50909C15.7383 8.8689 15.9271 8.17386 15.9994 7.44514L11.2928 8.45674V1.45713C10.5716 1.8667 9.93109 2.41187 9.41044 3.05494V8.86156L7.52811 9.26623V0.505127C6.80692 0.914548 6.16643 1.45987 5.64578 2.10294V9.67075L1.43407 10.576C1.14855 11.2162 0.959677 11.9112 0.88723 12.6399L5.64578 11.6171V14.0681L0.546063 15.1643C0.260547 15.8044 0.0718159 16.4995 -0.000488281 17.2282L5.33749 16.0808C5.77203 15.9894 6.14551 15.7296 6.38832 15.372L7.36728 13.904V13.9037C7.4689 13.7519 7.52811 13.5688 7.52811 13.3715V11.2124L9.41044 10.8077V14.7004L15.4528 13.4008L15.453 13.401Z" fill="black"/>
</g>
<defs>
<clipPath id="clip0_1114_6894">
<rect width="16" height="18.087" fill="white" transform="translate(0 0.505127)"/>
</clipPath>
</defs>
</svg>
