<svg width="40" height="41" viewBox="0 0 40 41" fill="none" xmlns="http://www.w3.org/2000/svg">
<path d="M36.6663 12.9001C36.6663 9.68341 29.1997 7.06674 19.9997 7.06674C10.7997 7.06674 3.33301 9.68341 3.33301 12.9001C3.33301 15.9167 9.91634 18.4167 18.333 18.7001V25.4001H15.583C14.2163 25.4001 12.9997 26.2334 12.483 27.5001L9.99967 33.7334H13.333L15.333 28.7334H24.6663L26.6663 33.7334H29.9997L27.4997 27.5001C26.9997 26.2334 25.7663 25.4001 24.4163 25.4001H21.6663V18.7001C30.083 18.4167 36.6663 15.9167 36.6663 12.9001ZM19.9997 10.4001C26.7497 10.4001 31.233 11.8334 32.8663 12.9001C31.233 13.9667 26.7497 15.4001 19.9997 15.4001C13.2497 15.4001 8.76634 13.9667 7.13301 12.9001C8.76634 11.8334 13.2497 10.4001 19.9997 10.4001Z" fill="black"/>
</svg>
