<svg width="24" height="25" viewBox="0 0 24 25" fill="none" xmlns="http://www.w3.org/2000/svg">
<path d="M11.99 2.54858C6.47 2.54858 2 7.02858 2 12.5486C2 18.0686 6.47 22.5486 11.99 22.5486C17.52 22.5486 22 18.0686 22 12.5486C22 7.02858 17.52 2.54858 11.99 2.54858ZM12 20.5486C7.58 20.5486 4 16.9686 4 12.5486C4 8.12858 7.58 4.54858 12 4.54858C16.42 4.54858 20 8.12858 20 12.5486C20 16.9686 16.42 20.5486 12 20.5486ZM12.5 7.54858H11V13.5486L16.25 16.6986L17 15.4686L12.5 12.7986V7.54858Z" fill="black"/>
</svg>
