<svg width="32" height="32" viewBox="0 0 32 32" fill="none" xmlns="http://www.w3.org/2000/svg">
<path d="M10.0793 14.0798H18.0793M14.0793 18.0798V10.0798M20.7366 20.7371C21.6108 19.863 22.3042 18.8252 22.7773 17.683C23.2504 16.5409 23.4939 15.3167 23.4939 14.0805C23.4939 12.8442 23.2504 11.62 22.7773 10.4779C22.3042 9.33574 21.6108 8.29795 20.7366 7.42379C19.8625 6.54962 18.8247 5.85619 17.6825 5.3831C16.5404 4.91 15.3162 4.6665 14.08 4.6665C12.8437 4.6665 11.6196 4.91 10.4774 5.3831C9.33525 5.85619 8.29746 6.54962 7.4233 7.42379C5.65784 9.18924 4.66602 11.5837 4.66602 14.0805C4.66602 16.5772 5.65784 18.9717 7.4233 20.7371C9.18875 22.5026 11.5832 23.4944 14.08 23.4944C16.5767 23.4944 18.9712 22.5026 20.7366 20.7371ZM20.7366 20.7371L26.666 26.6665" stroke="black" stroke-width="2" stroke-linecap="round" stroke-linejoin="round"/>
<path d="M20.7366 7.42379C21.6108 8.29795 22.3042 9.33574 22.7773 10.4779C23.2504 11.62 23.4939 12.8442 23.4939 14.0805C23.4939 15.3167 23.2504 16.5409 22.7773 17.683C22.3042 18.8252 21.6108 19.863 20.7366 20.7371C19.8625 21.6113 18.8247 22.3047 17.6825 22.7778C16.5404 23.2509 15.3162 23.4944 14.08 23.4944C12.8437 23.4944 11.6196 23.2509 10.4774 22.7778C9.33525 22.3047 8.29746 21.6113 7.4233 20.7371C5.65784 18.9717 4.66602 16.5772 4.66602 14.0805C4.66602 11.5837 5.65784 9.18924 7.4233 7.42379C9.18875 5.65833 11.5832 4.6665 14.08 4.6665C16.5767 4.6665 18.9712 5.65833 20.7366 7.42379Z" stroke="black" stroke-width="2" stroke-linecap="round" stroke-linejoin="round"/>
</svg>
