<svg width="25" height="24" viewBox="0 0 25 24" fill="none" xmlns="http://www.w3.org/2000/svg">
<g clip-path="url(#clip0_437_1479)">
<path d="M24.2141 12.2245C24.2141 11.2413 24.1343 10.5238 23.9616 9.77966H12.7336V14.2176H19.3242C19.1914 15.3205 18.4739 16.9815 16.8793 18.0976L16.857 18.2462L20.407 20.9964L20.653 21.0209C22.9118 18.9347 24.2141 15.8653 24.2141 12.2245Z" fill="#4285F4"/>
<path d="M12.7336 23.9176C15.9624 23.9176 18.6731 22.8545 20.653 21.0209L16.8793 18.0976C15.8695 18.8018 14.5141 19.2934 12.7336 19.2934C9.57121 19.2934 6.88715 17.2074 5.93035 14.324L5.79011 14.3359L2.09869 17.1927L2.05042 17.3269C4.01695 21.2334 8.05637 23.9176 12.7336 23.9176Z" fill="#34A853"/>
<path d="M5.93029 14.324C5.67783 13.5799 5.53173 12.7826 5.53173 11.9588C5.53173 11.1349 5.67783 10.3377 5.91701 9.5936L5.91032 9.43513L2.17264 6.53241L2.05035 6.59058C1.23985 8.21168 0.77478 10.0321 0.77478 11.9588C0.77478 13.8855 1.23985 15.7058 2.05035 17.3269L5.93029 14.324Z" fill="#FBBC05"/>
<path d="M12.7336 4.62403C14.9792 4.62403 16.4939 5.59402 17.3577 6.40461L20.7327 3.10928C18.6599 1.1826 15.9624 0 12.7336 0C8.05637 0 4.01695 2.68406 2.05042 6.59056L5.91707 9.59359C6.88715 6.7102 9.57121 4.62403 12.7336 4.62403Z" fill="#EB4335"/>
</g>
<defs>
<clipPath id="clip0_437_1479">
<rect width="23.46" height="24" fill="white" transform="translate(0.77002)"/>
</clipPath>
</defs>
</svg>
