<svg width="18" height="17" viewBox="0 0 18 17" fill="none" xmlns="http://www.w3.org/2000/svg">
<path d="M3.92001 0.119999C4.16001 0.119999 4.35668 0.199999 4.51001 0.359999C4.66334 0.52 4.74001 0.719999 4.74001 0.96C4.74001 1.13333 4.71668 1.26 4.67001 1.34C4.62334 1.42 4.53334 1.52 4.40001 1.64C3.76001 2.17333 3.19334 2.87333 2.70001 3.74L2.68001 3.78C2.54668 4.02 2.46001 4.18 2.42001 4.26C2.32668 4.47333 2.23334 4.62667 2.14001 4.72C2.00668 4.84 1.83001 4.9 1.61001 4.9C1.39001 4.9 1.19334 4.82333 1.02001 4.67C0.846676 4.51667 0.76001 4.34 0.76001 4.14C0.76001 4.02 0.77001 3.92667 0.79001 3.86C0.81001 3.79333 0.846676 3.7 0.90001 3.58L0.96001 3.48C1.12001 3.16 1.30001 2.83333 1.50001 2.5L1.80001 2.08C2.04001 1.72 2.30001 1.4 2.58001 1.12L2.76001 0.94C3.14668 0.526667 3.40668 0.286667 3.54001 0.219999C3.62001 0.166666 3.69334 0.139999 3.76001 0.139999L3.92001 0.119999ZM2.22001 13.46C2.03334 13.3533 1.89334 13.2533 1.80001 13.16C1.66668 13.0267 1.60001 12.8667 1.60001 12.68C1.60001 12.4133 1.68668 12.1933 1.86001 12.02L2.14001 11.84C2.36668 11.6933 2.55668 11.5233 2.71001 11.33C2.86334 11.1367 2.99334 10.9067 3.10001 10.64L3.12001 10.6C3.17334 10.4533 3.20668 10.3467 3.22001 10.28C3.23334 10.2133 3.24668 10.1067 3.26001 9.96V8.86C3.26001 7.86 3.30668 7.10667 3.40001 6.6C3.49334 6.06667 3.68668 5.5 3.98001 4.9C4.50001 3.86 5.24668 3.01333 6.22001 2.36C6.27334 2.33333 6.34001 2.29667 6.42001 2.25C6.50001 2.20333 6.56001 2.16 6.60001 2.12C6.64001 2.08 6.67334 2.01333 6.70001 1.92C6.78001 1.54667 6.96668 1.21333 7.26001 0.919999C7.48668 0.693333 7.79334 0.486666 8.18001 0.299999C8.31334 0.233334 8.46668 0.186666 8.64001 0.16C8.76001 0.146666 8.94001 0.139999 9.18001 0.139999C9.72668 0.139999 10.2 0.299999 10.6 0.619999C11.08 0.993333 11.38 1.43333 11.5 1.94C11.5267 2.03333 11.56 2.09667 11.6 2.13C11.64 2.16333 11.7067 2.20333 11.8 2.25C11.8933 2.29667 11.9667 2.34 12.02 2.38C12.3 2.58 12.5067 2.74 12.64 2.86C12.8533 3.03333 13.04 3.21333 13.2 3.4L13.54 3.8C14.22 4.65333 14.6733 5.74667 14.9 7.08C14.9133 7.17333 14.92 7.50667 14.92 8.08L14.96 10.22C15.04 10.58 15.17 10.8867 15.35 11.14C15.53 11.3933 15.7667 11.62 16.06 11.82C16.2467 11.94 16.3733 12.0467 16.44 12.14C16.5467 12.2867 16.6 12.4667 16.6 12.68C16.6 12.8667 16.5333 13.0267 16.4 13.16C16.3067 13.2533 16.1667 13.3533 15.98 13.46H12.44L12.42 13.72C12.3533 14.2 12.2467 14.6 12.1 14.92C11.9533 15.24 11.74 15.54 11.46 15.82C11.2867 15.9933 11.0467 16.1667 10.74 16.34L10.54 16.46C10.38 16.5533 10.18 16.6333 9.94001 16.7C9.70001 16.7667 9.46668 16.8 9.24001 16.8C8.68001 16.8 8.18668 16.7067 7.76001 16.52C7.37334 16.3467 7.02001 16.1 6.70001 15.78C6.22001 15.3 5.92668 14.7267 5.82001 14.06L5.80001 13.98C5.77334 13.8067 5.76001 13.6933 5.76001 13.64V13.46H2.22001ZM13.46 0.96C13.46 0.693333 13.5367 0.49 13.69 0.35C13.8433 0.209999 14.0533 0.139999 14.32 0.139999C14.52 0.139999 14.6667 0.186666 14.76 0.279999L14.84 0.34C14.9467 0.433332 15.0333 0.513332 15.1 0.58L15.62 1.1C15.7533 1.23333 15.9067 1.42 16.08 1.66L16.3 1.94C16.6067 2.31333 16.9133 2.81333 17.22 3.44L17.28 3.54C17.3333 3.66 17.3733 3.75333 17.4 3.82C17.4267 3.91333 17.44 4.02 17.44 4.14C17.44 4.34 17.3533 4.51667 17.18 4.67C17.0067 4.82333 16.8133 4.9 16.6 4.9C16.3867 4.9 16.2133 4.84667 16.08 4.74C16.0133 4.66 15.92 4.51333 15.8 4.3L15.58 3.92C15.38 3.53333 15.2133 3.26 15.08 3.1L14.8 2.74C14.4267 2.28667 14.1267 1.96 13.9 1.76L13.84 1.72C13.6933 1.58667 13.6 1.48667 13.56 1.42C13.4933 1.31333 13.46 1.16 13.46 0.96ZM9.14001 1.8C8.92668 1.8 8.76001 1.84 8.64001 1.92C8.56001 1.98667 8.46668 2.1 8.36001 2.26C8.33334 2.3 8.30001 2.43333 8.26001 2.66C8.22001 2.84667 8.19334 2.96 8.18001 3C8.10001 3.12 8.03001 3.20667 7.97001 3.26C7.91001 3.31333 7.80668 3.38 7.66001 3.46L7.46001 3.58C7.12668 3.75333 6.90001 3.9 6.78001 4.02L6.56001 4.24C6.29334 4.46667 6.12001 4.64 6.04001 4.76L6.02001 4.8C5.72668 5.24 5.52001 5.58 5.40001 5.82C5.18668 6.23333 5.05334 6.64667 5.00001 7.06C4.96001 7.26 4.94001 7.84 4.94001 8.8C4.94001 9.76 4.92001 10.34 4.88001 10.54C4.84001 10.82 4.68668 11.24 4.42001 11.8H13.78C13.5133 11.24 13.36 10.82 13.32 10.54C13.28 10.3267 13.26 9.7 13.26 8.66C13.26 7.82 13.2467 7.31333 13.22 7.14C13.0333 6.22 12.78 5.56 12.46 5.16L12.28 4.94C12.08 4.67333 11.92 4.48 11.8 4.36C11.6267 4.18667 11.4333 4.02667 11.22 3.88C11.06 3.77333 10.8333 3.63333 10.54 3.46C10.3267 3.34 10.1867 3.24 10.12 3.16C10.0267 3.04 9.96668 2.86 9.94001 2.62C9.91334 2.42 9.86334 2.26667 9.79001 2.16C9.71668 2.05333 9.60001 1.96 9.44001 1.88L9.40001 1.86C9.32001 1.82 9.23334 1.8 9.14001 1.8ZM9.10001 13.46H7.44001V13.56C7.44001 13.76 7.48668 13.9533 7.58001 14.14C7.63334 14.2467 7.73334 14.3933 7.88001 14.58L7.90001 14.62C8.00668 14.7667 8.17334 14.8867 8.40001 14.98C8.62668 15.0733 8.86001 15.12 9.10001 15.12C9.46001 15.12 9.76668 15.0267 10.02 14.84L10.1 14.78C10.2067 14.7133 10.2733 14.66 10.3 14.62L10.32 14.6C10.4533 14.4133 10.5533 14.26 10.62 14.14C10.7133 13.9533 10.76 13.76 10.76 13.56V13.46H9.10001Z" fill="#2A3547"/>
</svg>
